<svg width="94" height="102" viewBox="0 0 94 102" fill="none" xmlns="http://www.w3.org/2000/svg">
<path d="M42.0371 0L58.2204 12.5322L42.0371 20.2291V0Z" fill="white"/>
<path d="M84.2715 0.0986328L84.2715 20.3278L68.3861 12.6308L84.2715 0.0986328Z" fill="#D4D4D4"/>
<path d="M63.1543 10.0654L63.3517 52.3986L42.0371 20.2293L63.1543 10.0654Z" fill="#918E8E"/>
<path d="M63.1523 10.0654L63.3497 52.3986L84.2696 20.328L63.1523 10.0654Z" fill="white"/>
<path d="M84.2734 20.3279L63.3535 52.3984L92.4637 37.794L84.2734 20.3279Z" fill="#CCCCCC"/>
<path d="M34.1426 37.8385L63.3515 52.398L42.0369 20.2288L34.1426 37.8385Z" fill="#ABABAB"/>
<path d="M50.3258 45.8857L63.3513 52.3412V77.5616L42.8262 66.2135L50.3258 45.8857Z" fill="#E9E9E9"/>
<path d="M76.0831 45.9844L63.3535 52.3398V77.3642L83.6813 66.1148L76.0831 45.9844Z" fill="#ADADAD"/>
<path d="M63.3535 77.3573L83.6813 66.1147L75.3923 101.047H63.3535V77.3573Z" fill="white"/>
<path d="M63.3513 77.3561L42.8262 66.2131L51.278 101.039H63.3513V77.3561Z" fill="#918E8E"/>
<path d="M33.1562 101.047L42.8268 66.2131L51.3131 101.047H33.1562Z" fill="white"/>
<path d="M27.3351 70.6541L33.1572 101.047L5.92188 88.9096L27.3351 70.6541Z" fill="white"/>
<path d="M27.334 70.6536L0 58.0227L5.92072 88.9091L27.334 70.6536Z" fill="#918E8E"/>
</svg>
