<svg width="657" height="124" viewBox="0 0 657 124" fill="none" xmlns="http://www.w3.org/2000/svg">
<path d="M646.886 42.095H655.987L640.11 64.6473L656.999 88.6155H647.897L635.761 71.0186L623.625 88.6155H614.523L631.412 64.6473L615.535 42.095H624.637L635.761 58.276L646.886 42.095Z" fill="white"/>
<path d="M564.34 65.3551C564.34 60.6356 565.385 56.4555 567.475 52.8148C569.632 49.174 572.531 46.3086 576.172 44.2186C579.813 42.1285 583.892 41.0835 588.409 41.0835C592.994 41.0835 597.073 42.1285 600.646 44.2186C604.287 46.3086 607.152 49.174 609.242 52.8148C611.4 56.4555 612.478 60.6356 612.478 65.3551C612.478 70.0071 611.4 74.1872 609.242 77.8954C607.152 81.5361 604.287 84.4015 600.646 86.4916C597.073 88.5816 592.994 89.6266 588.409 89.6266C583.892 89.6266 579.813 88.5816 576.172 86.4916C572.531 84.4015 569.632 81.5361 567.475 77.8954C565.385 74.1872 564.34 70.0071 564.34 65.3551ZM572.531 65.3551C572.531 68.5913 573.206 71.4567 574.554 73.9512C575.97 76.4458 577.858 78.4347 580.218 79.918C582.645 81.3339 585.375 82.0418 588.409 82.0418C591.443 82.0418 594.14 81.3339 596.5 79.918C598.927 78.4347 600.815 76.4458 602.163 73.9512C603.579 71.4567 604.287 68.5913 604.287 65.3551C604.287 62.1189 603.579 59.2535 602.163 56.7589C600.815 54.1969 598.927 52.208 596.5 50.7921C594.14 49.3763 591.443 48.6684 588.409 48.6684C585.375 48.6684 582.645 49.3763 580.218 50.7921C577.858 52.208 575.97 54.1969 574.554 56.7589C573.206 59.2535 572.531 62.1189 572.531 65.3551Z" fill="white"/>
<path d="M526.14 25.914V17.8235H557.794V25.914H526.14ZM526.14 54.2308V46.1403H556.783V54.2308H526.14ZM521.387 17.8235H529.983V88.6156H521.387V17.8235Z" fill="white"/>
<path d="M499.67 17.8933H506.923V88.6156H499.67V17.8933ZM464.762 67.7616C464.762 63.2281 465.699 59.3596 467.572 56.1559C469.446 52.8918 471.955 50.3833 475.098 48.6303C478.241 46.8774 481.687 46.0009 485.434 46.0009C488.94 46.0009 491.993 46.8774 494.592 48.6303C497.191 50.3833 499.216 52.8918 500.667 56.1559C502.178 59.3596 502.934 63.2281 502.934 67.7616C502.934 72.2347 502.178 76.1032 500.667 79.3673C499.216 82.6315 497.191 85.14 494.592 86.8929C491.993 88.6459 488.94 89.5223 485.434 89.5223C481.687 89.5223 478.241 88.6459 475.098 86.8929C471.955 85.14 469.446 82.6315 467.572 79.3673C465.699 76.1032 464.762 72.2347 464.762 67.7616ZM472.106 67.7616C472.106 70.9653 472.741 73.6854 474.01 75.9219C475.34 78.1584 477.093 79.8509 479.269 80.9994C481.445 82.1479 483.802 82.7221 486.341 82.7221C488.457 82.7221 490.542 82.1479 492.597 80.9994C494.653 79.8509 496.345 78.1584 497.675 75.9219C499.005 73.6854 499.67 70.9653 499.67 67.7616C499.67 64.558 499.005 61.8379 497.675 59.6014C496.345 57.3648 494.653 55.6723 492.597 54.5239C490.542 53.3754 488.457 52.8011 486.341 52.8011C483.802 52.8011 481.445 53.3754 479.269 54.5239C477.093 55.6723 475.34 57.3648 474.01 59.6014C472.741 61.8379 472.106 64.558 472.106 67.7616Z" fill="white"/>
<path d="M437.86 89.5224C433.991 89.5224 430.546 88.6157 427.523 86.8023C424.562 84.9285 422.234 82.3595 420.542 79.0954C418.91 75.8313 418.094 72.0534 418.094 67.7617C418.094 63.4096 418.94 59.6014 420.633 56.3373C422.385 53.0732 424.803 50.5345 427.886 48.7211C431.029 46.9077 434.656 46.001 438.766 46.001C442.877 46.001 446.383 46.8775 449.284 48.6304C452.246 50.3229 454.513 52.771 456.084 55.9746C457.656 59.1783 458.442 62.9864 458.442 67.399C458.442 67.8221 458.412 68.2755 458.351 68.7591C458.351 69.1822 458.351 69.4542 458.351 69.5751H422.718V63.4096H452.639L449.737 67.5804C449.919 67.2781 450.1 66.8248 450.281 66.2203C450.463 65.5554 450.553 65.0114 450.553 64.5883C450.553 62.11 450.04 59.9641 449.012 58.1507C448.045 56.3373 446.685 54.9168 444.932 53.8892C443.179 52.8617 441.124 52.3479 438.766 52.3479C435.986 52.3479 433.598 52.9523 431.604 54.1612C429.669 55.3097 428.158 57.0022 427.07 59.2387C426.042 61.4148 425.498 64.1047 425.438 67.3083C425.438 70.5725 425.952 73.353 426.979 75.65C428.007 77.9469 429.518 79.6999 431.513 80.9088C433.508 82.1177 435.925 82.7222 438.766 82.7222C441.607 82.7222 444.116 82.1177 446.292 80.9088C448.468 79.6394 450.312 77.7354 451.823 75.1966L457.716 78.9141C455.54 82.42 452.79 85.0796 449.465 86.893C446.201 88.6459 442.333 89.5224 437.86 89.5224Z" fill="white"/>
<path d="M393.594 46.9075H414.448V53.7078H393.594V46.9075ZM400.394 32.4004H407.648V88.6156H400.394V32.4004Z" fill="white"/>
<path d="M376.119 46.9077V88.6157H368.865V46.9077H376.119ZM388.722 54.8866C387.755 54.1612 386.878 53.6475 386.092 53.3452C385.307 52.9825 384.309 52.8012 383.1 52.8012C381.287 52.8012 379.866 53.2546 378.839 54.1612C377.811 55.0679 377.086 56.3071 376.663 57.8787C376.3 59.4503 376.119 61.2335 376.119 63.2282H372.855C372.855 59.9037 373.429 56.972 374.577 54.4333C375.786 51.8341 377.328 49.7789 379.202 48.2677C381.075 46.7566 382.979 46.001 384.914 46.001C386.425 46.001 387.815 46.2125 389.085 46.6357C390.414 46.9983 391.623 47.7539 392.711 48.9024L388.722 54.8866Z" fill="white"/>
<path d="M328.471 75.7406C328.471 77.3122 328.834 78.6723 329.559 79.8208C330.345 80.9692 331.403 81.8457 332.733 82.4502C334.123 82.9942 335.695 83.2662 337.447 83.2662C339.684 83.2662 341.679 82.8129 343.432 81.9062C345.245 80.9995 346.666 79.7301 347.693 78.098C348.781 76.4055 349.325 74.4713 349.325 72.2952L350.776 77.7354C350.776 80.395 349.96 82.6013 348.328 84.3542C346.756 86.1072 344.792 87.4068 342.434 88.253C340.137 89.0993 337.84 89.5224 335.543 89.5224C333.005 89.5224 330.617 89.0086 328.381 87.981C326.204 86.893 324.452 85.3516 323.122 83.3569C321.792 81.3622 321.127 78.9443 321.127 76.1033C321.127 72.0534 322.547 68.8195 325.388 66.4017C328.29 63.9234 332.31 62.6842 337.447 62.6842C340.47 62.6842 342.978 63.0469 344.973 63.7722C347.028 64.4371 348.66 65.223 349.869 66.1296C351.078 66.9759 351.894 67.671 352.317 68.215V72.4765C350.202 71.0258 348.026 69.9982 345.789 69.3937C343.553 68.7288 341.165 68.3964 338.626 68.3964C336.269 68.3964 334.335 68.6986 332.823 69.3031C331.373 69.9075 330.285 70.7538 329.559 71.8418C328.834 72.9299 328.471 74.2295 328.471 75.7406ZM327.383 56.5187L323.847 51.1691C325.419 50.0207 327.565 48.8722 330.285 47.7237C333.065 46.5752 336.39 46.001 340.258 46.001C343.522 46.001 346.363 46.5148 348.781 47.5424C351.259 48.5095 353.164 49.93 354.493 51.8038C355.884 53.6777 356.579 55.9746 356.579 58.6947V88.6157H349.325V59.6921C349.325 58.2414 349.083 57.0627 348.6 56.156C348.116 55.1888 347.421 54.4333 346.514 53.8892C345.668 53.3452 344.671 52.9523 343.522 52.7105C342.374 52.4687 341.165 52.3479 339.896 52.3479C337.84 52.3479 335.967 52.5896 334.274 53.0732C332.642 53.5568 331.252 54.131 330.103 54.7959C328.955 55.4608 328.048 56.0351 327.383 56.5187Z" fill="white"/>
<path d="M284.826 17.8933V88.6157H277.572V17.8933H284.826ZM304.32 63.2281C304.32 59.7827 303.564 57.1835 302.053 55.4306C300.602 53.6776 298.396 52.8011 295.434 52.8011C293.319 52.8011 291.445 53.2545 289.813 54.1612C288.241 55.0679 287.002 56.307 286.095 57.8786C285.249 59.4502 284.826 61.2334 284.826 63.2281H282.468C282.468 59.9036 283.103 56.9719 284.372 54.4332C285.642 51.834 287.365 49.7788 289.541 48.2676C291.777 46.7565 294.346 46.0009 297.248 46.0009C300.149 46.0009 302.658 46.6054 304.773 47.8143C306.949 49.0232 308.612 50.8366 309.76 53.2545C310.969 55.6723 311.573 58.6947 311.573 62.3214V88.6157H304.32V63.2281Z" fill="white"/>
<path d="M237.54 67.7617C237.54 70.6631 238.144 73.2321 239.353 75.4686C240.622 77.7051 242.315 79.4883 244.43 80.8181C246.607 82.0875 249.055 82.7222 251.775 82.7222C254.011 82.7222 256.097 82.3897 258.031 81.7248C260.026 80.9995 261.748 80.0625 263.199 78.9141C264.65 77.7051 265.677 76.4358 266.282 75.1059V84.1729C264.831 85.8654 262.746 87.1952 260.026 88.1624C257.366 89.0691 254.616 89.5224 251.775 89.5224C247.725 89.5224 244.068 88.5855 240.804 86.7117C237.54 84.8378 234.94 82.2688 233.006 79.0047C231.132 75.6802 230.195 71.9325 230.195 67.7617C230.195 63.5304 231.132 59.7828 233.006 56.5187C234.94 53.2546 237.54 50.6856 240.804 48.8117C244.068 46.9379 247.725 46.001 251.775 46.001C254.616 46.001 257.366 46.4845 260.026 47.4517C262.746 48.3584 264.831 49.658 266.282 51.3505V60.4175C265.677 59.0272 264.65 57.7578 263.199 56.6093C261.748 55.4608 260.026 54.5542 258.031 53.8892C256.097 53.1639 254.011 52.8012 251.775 52.8012C249.055 52.8012 246.607 53.4359 244.43 54.7053C242.315 55.9746 240.622 57.7578 239.353 60.0548C238.144 62.2913 237.54 64.8603 237.54 67.7617Z" fill="white"/>
<path d="M213.382 63.2282C213.382 59.7828 212.627 57.1836 211.116 55.4306C209.604 53.6777 207.398 52.8012 204.497 52.8012C202.381 52.8012 200.507 53.2546 198.875 54.1612C197.304 55.0075 196.064 56.2164 195.158 57.788C194.311 59.3596 193.888 61.173 193.888 63.2282V88.6157H186.635V46.9077H193.888V53.4359C195.279 50.8971 197.001 49.0233 199.057 47.8144C201.172 46.6054 203.59 46.001 206.31 46.001C210.723 46.001 214.198 47.4819 216.737 50.4438C219.336 53.3452 220.636 57.3045 220.636 62.3215V88.6157H213.382V63.2282Z" fill="white"/>
<path d="M146.254 72.295C146.254 75.6195 147.009 78.1885 148.52 80.0019C150.031 81.8153 152.238 82.722 155.139 82.722C157.255 82.722 159.098 82.2989 160.67 81.4526C162.302 80.5459 163.541 79.3068 164.388 77.7351C165.294 76.1635 165.748 74.3502 165.748 72.295V46.9075H173.001V88.6155H165.748V82.0873C164.357 84.5656 162.635 86.4394 160.579 87.7088C158.524 88.9177 156.106 89.5222 153.326 89.5222C148.974 89.5222 145.498 88.0413 142.899 85.0794C140.3 82.1175 139 78.1583 139 73.2017V46.9075H146.254V72.295Z" fill="white"/>
<g filter="url(#filter0_i_15_8736)">
<rect width="124" height="124" rx="62" fill="white"/>
<path d="M58.3281 24L70.3886 33.3395L58.3281 39.0756V24Z" fill="#101010"/>
<path d="M89.8027 24.0735L89.8027 39.1491L77.9642 33.413L89.8027 24.0735Z" fill="#495057"/>
<path d="M74.0656 31.5012L74.2127 63.0498L58.3281 39.0758L74.0656 31.5012Z" fill="#23272B"/>
<path d="M74.0645 31.5012L74.2115 63.0498L89.802 39.1494L74.0645 31.5012Z" fill="#101010"/>
<path d="M89.8033 39.1492L74.2129 63.0496L95.9071 52.1657L89.8033 39.1492Z" fill="#4A5055"/>
<path d="M52.4453 52.199L74.2131 63.0494L58.3285 39.0754L52.4453 52.199Z" fill="#C3C9D0"/>
<path d="M64.505 58.196L74.2123 63.007V81.8023L58.916 73.3452L64.505 58.196Z" fill="#636B73"/>
<path d="M83.6995 58.2695L74.2129 63.0059V81.6552L89.3621 73.2716L83.6995 58.2695Z" fill="#99A1A9"/>
<path d="M74.2129 81.6502L89.3621 73.2717L83.1847 99.3048H74.2129V81.6502Z" fill="#101010"/>
<path d="M74.2123 81.6492L58.916 73.345L65.2147 99.2988H74.2123V81.6492Z" fill="#23272B"/>
<path d="M51.709 99.3045L58.9159 73.345L65.2403 99.3045H51.709Z" fill="#101010"/>
<path d="M47.3722 76.6545L51.711 99.3048L31.4141 90.2594L47.3722 76.6545Z" fill="#101010"/>
<path d="M47.3705 76.6543L27 67.2412L31.4124 90.2591L47.3705 76.6543Z" fill="#23272B"/>
</g>
<defs>
<filter id="filter0_i_15_8736" x="0" y="0" width="124" height="124.937" filterUnits="userSpaceOnUse" color-interpolation-filters="sRGB">
<feFlood flood-opacity="0" result="BackgroundImageFix"/>
<feBlend mode="normal" in="SourceGraphic" in2="BackgroundImageFix" result="shape"/>
<feColorMatrix in="SourceAlpha" type="matrix" values="0 0 0 0 0 0 0 0 0 0 0 0 0 0 0 0 0 0 127 0" result="hardAlpha"/>
<feOffset dy="0.9375"/>
<feGaussianBlur stdDeviation="0.9375"/>
<feComposite in2="hardAlpha" operator="arithmetic" k2="-1" k3="1"/>
<feColorMatrix type="matrix" values="0 0 0 0 0 0 0 0 0 0 0 0 0 0 0 0 0 0 0.2 0"/>
<feBlend mode="normal" in2="shape" result="effect1_innerShadow_15_8736"/>
</filter>
</defs>
</svg>
