<svg width="124" height="124" viewBox="0 0 124 124" fill="none" xmlns="http://www.w3.org/2000/svg">
<g filter="url(#filter0_i_15_8769)">
<rect width="124" height="124" rx="62" fill="white"/>
<path d="M58.3281 24L70.3886 33.3395L58.3281 39.0756V24Z" fill="#101010"/>
<path d="M89.8027 24.0735L89.8027 39.1491L77.9642 33.413L89.8027 24.0735Z" fill="#495057"/>
<path d="M74.0656 31.5012L74.2127 63.0498L58.3281 39.0758L74.0656 31.5012Z" fill="#23272B"/>
<path d="M74.0645 31.5012L74.2115 63.0498L89.802 39.1494L74.0645 31.5012Z" fill="#101010"/>
<path d="M89.8033 39.1492L74.2129 63.0496L95.9071 52.1657L89.8033 39.1492Z" fill="#4A5055"/>
<path d="M52.4453 52.199L74.2131 63.0494L58.3285 39.0754L52.4453 52.199Z" fill="#C3C9D0"/>
<path d="M64.505 58.196L74.2123 63.007V81.8023L58.916 73.3452L64.505 58.196Z" fill="#636B73"/>
<path d="M83.6995 58.2695L74.2129 63.0059V81.6552L89.3621 73.2716L83.6995 58.2695Z" fill="#99A1A9"/>
<path d="M74.2129 81.6502L89.3621 73.2717L83.1847 99.3048H74.2129V81.6502Z" fill="#101010"/>
<path d="M74.2123 81.6492L58.916 73.345L65.2147 99.2988H74.2123V81.6492Z" fill="#23272B"/>
<path d="M51.709 99.3045L58.9159 73.345L65.2403 99.3045H51.709Z" fill="#101010"/>
<path d="M47.3722 76.6545L51.711 99.3048L31.4141 90.2594L47.3722 76.6545Z" fill="#101010"/>
<path d="M47.3705 76.6543L27 67.2412L31.4124 90.2591L47.3705 76.6543Z" fill="#23272B"/>
</g>
<defs>
<filter id="filter0_i_15_8769" x="0" y="0" width="124" height="124.937" filterUnits="userSpaceOnUse" color-interpolation-filters="sRGB">
<feFlood flood-opacity="0" result="BackgroundImageFix"/>
<feBlend mode="normal" in="SourceGraphic" in2="BackgroundImageFix" result="shape"/>
<feColorMatrix in="SourceAlpha" type="matrix" values="0 0 0 0 0 0 0 0 0 0 0 0 0 0 0 0 0 0 127 0" result="hardAlpha"/>
<feOffset dy="0.9375"/>
<feGaussianBlur stdDeviation="0.9375"/>
<feComposite in2="hardAlpha" operator="arithmetic" k2="-1" k3="1"/>
<feColorMatrix type="matrix" values="0 0 0 0 0 0 0 0 0 0 0 0 0 0 0 0 0 0 0.2 0"/>
<feBlend mode="normal" in2="shape" result="effect1_innerShadow_15_8769"/>
</filter>
</defs>
</svg>
