<?xml version="1.0" encoding="UTF-8" standalone="no"?>
<svg width="180px" height="180px" viewBox="0 0 180 180" version="1.1" xmlns="http://www.w3.org/2000/svg" xmlns:xlink="http://www.w3.org/1999/xlink">
    <!-- Generator: Sketch 3.8.3 (29802) - http://www.bohemiancoding.com/sketch -->
    <title>congo_democratic_republic</title>
    <desc>Created with Sketch.</desc>
    <defs></defs>
    <g id="Page-1" stroke="none" stroke-width="1" fill="none" fill-rule="evenodd">
        <g id="flags" transform="translate(-2070.000000, -1260.000000)">
            <g id="congo_democratic_republic" transform="translate(2070.000000, 1260.000000)">
                <path d="M170.429783,49.5702174 C176.552277,61.7262501 180,75.4604953 180,90 C180,139.70563 139.70563,180 90,180 C75.4604953,180 61.7262501,176.552277 49.5702174,170.429783 L170.429783,49.5702174 L170.429783,49.5702174 Z M130.429783,9.57021741 C118.27375,3.44772349 104.539505,0 90,0 C40.2943701,0 0,40.2943701 0,90 C0,104.539505 3.44772349,118.27375 9.57021741,130.429783 L130.429783,9.57021741 L130.429783,9.57021741 Z" id="blue" fill="#2C97DE"></path>
                <path d="M136.856012,13.1439877 C134.76843,11.8685496 132.624836,10.6757758 130.429783,9.57021741 L9.57021741,130.429783 L9.57021741,130.429783 C10.6757758,132.624836 11.8685496,134.76843 13.1439877,136.856012 L136.856012,13.1439877 L136.856012,13.1439877 Z M166.856012,43.1439877 C168.13145,45.23157 169.324224,47.3751635 170.429783,49.5702174 L49.5702174,170.429783 C47.3751635,169.324224 45.23157,168.13145 43.1439877,166.856012 L166.856012,43.1439877 L166.856012,43.1439877 Z" id="yellow" fill="#F2C500"></path>
                <path d="M166.856012,43.1439877 C159.3865,30.9182121 149.081788,20.6134995 136.856012,13.1439877 L13.1439877,136.856012 C20.6134995,149.081788 30.9182121,159.3865 43.1439877,166.856012 L166.856012,43.1439877 L166.856012,43.1439877 Z" id="red" fill="#E94B35"></path>
                <polygon id="star" fill="#F2C500" points="30.4999996 76.25 20.2137589 81.657798 22.1782556 70.203899 13.8565108 62.092203 25.3568807 60.4211001 30.5000002 50 35.6431229 60.4211027 47.1434919 62.0922113 38.8217437 70.2039012 40.7862408 81.6577982"></polygon>
            </g>
        </g>
    </g>
</svg>