<?xml version="1.0" encoding="UTF-8" standalone="no"?>
<svg width="180px" height="180px" viewBox="0 0 180 180" version="1.1" xmlns="http://www.w3.org/2000/svg" xmlns:xlink="http://www.w3.org/1999/xlink">
    <!-- Generator: Sketch 3.8.3 (29802) - http://www.bohemiancoding.com/sketch -->
    <title>norfolk_island</title>
    <desc>Created with Sketch.</desc>
    <defs></defs>
    <g id="Page-1" stroke="none" stroke-width="1" fill="none" fill-rule="evenodd">
        <g id="flags" transform="translate(-1530.000000, -4230.000000)">
            <g id="norfolk_island" transform="translate(1530.000000, 4230.000000)">
                <path d="M120,174.877528 C154.952776,162.521396 179.994476,129.185191 179.994476,90 C179.994476,50.8148092 154.952776,17.4786037 120,5.12247245 L120,174.877531 L120,174.877528 L120,174.877528 Z" id="green" fill="#1AAF5D"></path>
                <path d="M60.0000004,5.12051622 L60.0000004,174.879484 C69.3825595,178.19561 79.4791864,180 89.9972386,180 C100.517354,180 110.61588,178.194901 120,174.877528 L120,5.12246865 C110.61588,1.80509864 100.517354,0 89.9972386,0 C79.4791864,0 69.3825595,1.80439039 60,5.12052001 L60.0000004,5.12051622 L60.0000004,5.12051622 Z" id="white" fill="#FFFFFF"></path>
                <path d="M0.00276191524,89.2874328 L0.00276191524,90.7125672 C0.304247676,129.592015 25.2577277,162.60161 60.0027615,174.880456 L60.0027619,5.11954011 C25.2577277,17.3983904 0.304247676,50.4079855 0.00276191524,89.2874328 L0.00276191524,89.2874328 L0.00276191524,89.2874328 Z" id="green" fill="#1AAF5D"></path>
                <path d="M90.5189148,54 C90.3737488,55.5712 90.2282795,57.1431942 90.0831243,58.7144303 C89.5510269,58.794606 89.0190739,58.8744278 88.4869766,58.9545926 C88.486973,58.9545926 89.5955428,59.5770758 89.7890951,60.202357 C89.8200722,60.3025016 89.8076886,60.385385 89.7628477,60.4477362 C89.7481174,60.4672287 89.7255561,60.4888855 89.7050925,60.5051647 C89.3839675,60.751952 88.4344564,60.6356853 88.4344564,60.6356853 C88.4344564,60.6356816 89.6923118,61.6970278 89.7890879,62.0818398 C89.7912542,62.0908477 89.7941425,62.0992418 89.794323,62.1079645 C89.7942002,62.1151708 89.7957671,62.1270634 89.794323,62.1340531 C89.7928788,62.1396022 89.7860552,62.1495091 89.7838168,62.15495 C89.7752241,62.1738322 89.7597356,62.1951154 89.7418137,62.2123784 C89.4460877,62.4855395 88.0511463,62.5621698 88.0511463,62.5621698 C88.0511463,62.5621698 89.5977777,63.6649775 89.6945538,64.2902407 C89.7822571,64.8569074 89.7087065,65.1888094 89.6945538,65.2456367 C89.5864736,65.1533175 87.0923746,63.0573872 85.4835906,63.668967 C85.4034619,63.7105946 85.3560432,63.75026 85.336576,63.7890445 C85.3280194,63.8083925 85.3262142,63.8325062 85.331341,63.8516936 C85.4440461,64.2003296 87.7190638,64.5574681 89.306005,65.9296461 C89.2666411,66.273029 84.7831052,64.8373807 84.6173889,65.7364729 C84.7576232,65.9899935 89.4424773,66.6652424 89.7890735,67.2766056 C88.0637104,67.340762 84.4993296,66.8968841 84.6173889,67.4645618 C84.2568205,68.1199535 87.983885,67.7497816 89.5475393,68.2842257 C90.0058947,68.8021343 89.9616495,69.2372027 89.1642436,69.2918278 C87.6571278,68.5752943 84.2840969,68.0428539 84.2759736,68.9577054 C84.276053,68.9587885 84.2758075,68.9620018 84.2759736,68.9629224 C84.2763346,68.9640055 84.2808476,68.9672549 84.2812086,68.9681394 C84.2826528,68.9710277 84.2840969,68.9759559 84.2864798,68.9785914 C84.2918593,68.9837362 84.3038457,68.9894767 84.3127272,68.9942605 C84.693622,69.1842566 87.83465,69.09158 89.017229,69.8713474 C87.340588,70.2505814 81.6553092,69.1020122 81.6192054,69.6625232 C81.7811706,69.9243117 82.6807827,71.07326 84.228786,71.0251337 C85.7767171,70.97702 89.3580486,71.6509564 89.6001244,72.1319308 C89.6076701,72.14695 89.6075979,72.1623772 89.6053595,72.1736993 C89.500543,72.5091394 84.8891239,71.1504643 83.1157067,71.9857431 C81.2776638,72.8516378 88.3864962,72.3267251 89.5475934,73.3849086 C90.7085824,74.443092 87.2268431,73.2857153 87.2268431,73.2857153 C87.2268467,73.2857153 82.3920067,72.6149614 81.6665014,72.9515929 C80.9408337,73.288387 80.1175955,74.0583901 80.1175955,74.0583901 C80.1175955,74.0583901 80.599978,75.0181367 81.0836963,74.825848 C81.1573877,74.7965173 81.207756,74.7905349 81.2359639,74.7997594 C81.236686,74.8001204 81.2405491,74.7993984 81.2412351,74.7997594 C81.2419572,74.8001204 81.2458564,74.8046153 81.2465062,74.8049764 C81.2475893,74.8056985 81.2508026,74.8093088 81.2517774,74.8101934 C81.2524995,74.8112765 81.256182,74.8144175 81.2570124,74.8154104 C81.2573735,74.8157714 81.2619586,74.8200497 81.2622836,74.8206274 C81.2644498,74.8254472 81.2667243,74.8356104 81.2675186,74.8415278 C81.2789274,74.9858184 80.9367359,75.4053785 80.9367359,75.4053785 C80.9367359,75.4053785 87.7119694,77.0374675 89.2115395,78.4803366 C90.7110735,79.9234404 80.6007903,76.219699 80.6007903,76.219699 C80.6007903,76.2196954 76.5373109,77.7105681 80.8423065,77.8068027 C80.3624693,78.504833 81.0410577,78.9344679 81.0838226,78.9605889 C81.0838226,78.9605889 88.2446444,80.4531008 88.9701497,81.6075369 C89.6958174,82.7619549 84.084768,80.4994038 82.8270932,79.874249 C81.6136996,79.2709009 78.2361377,80.1933341 78.0438852,80.4746367 C78.042441,80.4768029 78.0395888,80.4829225 78.0386501,80.4850887 C78.0382891,80.4861718 78.0390112,80.4892767 78.0386501,80.4903057 C78.0382891,80.4924719 78.0384913,80.4988442 78.0386501,80.5007577 C78.0388162,80.5018409 78.0384804,80.5050541 78.0386501,80.5059747 C78.0390112,80.5070578 78.0382891,80.5102711 78.0386501,80.5111917 C78.0390112,80.5122748 78.0434519,80.515452 78.0438852,80.5164087 C78.0442462,80.5174918 78.0435241,80.520669 78.0438852,80.5216257 C78.0460514,80.5254888 78.0513587,80.5334136 78.0543914,80.5372948 C78.0551134,80.5383779 78.0587599,80.541555 78.0596264,80.5425118 C78.2759963,80.7795872 79.7836537,81.1060736 79.8290541,81.5135768 C79.8292202,81.515382 79.8289314,81.5171872 79.8290541,81.5187938 C79.8297762,81.5405572 79.8230248,81.5663064 79.8132768,81.5866653 C79.623371,81.9528117 77.8246811,82.1085633 77.7497658,82.4533182 C77.7486827,82.4592212 77.7445308,82.468193 77.7445308,82.4742187 C77.7445271,82.8591391 86.7930382,84.7350368 89.2116298,86.7552233 C91.6302214,88.7754098 82.1024364,84.3483654 82.1024364,84.3483654 C82.1024364,84.3483654 82.6345518,85.0695382 82.1024364,85.2620074 C81.5703209,85.4542961 79.6800539,82.5686662 76.5841556,84.3483654 C76.0202869,85.080604 79.2872449,85.6617845 80.1178121,85.7422959 C79.8341989,86.4673679 79.5868881,86.7072233 80.7478771,87.4286128 C80.8748396,87.507532 80.9461229,87.5552106 80.973652,87.5800175 C80.9743741,87.5807396 80.978165,87.5844944 80.9789231,87.5852526 L80.9841582,87.5904876 C80.9845192,87.5908487 80.9839921,87.5952533 80.9841582,87.5957227 C80.9840535,87.5960837 80.9843243,87.600705 80.9841582,87.6009577 C80.9837971,87.6010299 80.9795369,87.6009361 80.9789231,87.6009577 C80.9782011,87.6009216 80.9744824,87.6010444 80.973652,87.6009577 C80.7938263,87.5729773 78.7081404,86.5071759 78.4900736,86.4628225 C78.4879074,86.4624614 78.4811921,86.4629524 78.4795674,86.4628225 C78.4788453,86.4628622 78.4748378,86.462725 78.4743324,86.4628225 C78.4743324,86.5590462 78.7158485,87.7158038 78.7158485,87.7158038 C77.644072,86.8500715 76.3485243,86.5890412 75.1350766,87.4756596 C75.1332714,87.5269486 75.1243899,88.3570429 76.3426936,88.8696081 C75.6560179,90.2647661 77.1186719,89.8315931 79.4405776,91.1302457 C75.9897792,90.2334461 75.7134048,91.8992921 78.1804657,92.2840319 C80.6475266,92.6687718 87.4212258,92.9098547 89.017554,94.9779147 C89.3542758,95.4141927 89.4456544,95.6335592 89.3798372,95.7036005 C89.11359,95.9435281 86.6641116,94.1819169 86.308309,94.1164968 C86.3075869,94.1168579 86.303796,94.1157748 86.3030378,94.1164968 C86.3023158,94.1172189 86.2985249,94.1209015 86.2977667,94.1217319 C86.2932537,94.1273641 86.2865023,94.1385201 86.2819893,94.1478349 C86.1950587,94.3391849 86.1139732,95.171106 86.1139732,95.171106 C85.0820192,94.5771809 84.1351256,94.0444157 82.9007377,93.7928265 C82.8039615,93.9851152 82.8242482,94.2583486 82.7274721,94.4506372 C81.6072984,93.6474005 80.6314677,93.0826654 79.0048123,93.0044827 C78.9402949,93.2610902 78.875059,93.52055 78.8105379,93.7771575 C78.8105415,93.7771539 77.4544442,92.0936567 74.7938129,93.7771575 C73.308215,94.8361713 80.4059635,94.1606156 81.5668803,95.4112503 C82.7278692,96.6617224 81.8084145,96.8521878 81.8084145,96.8521878 C80.8409778,96.4995081 79.8775848,96.1502764 78.9101843,95.7975967 C78.9101843,95.7975967 75.4723833,95.1690481 74.5049828,95.9385566 C73.5375461,96.7082168 88.6293193,98.584602 89.0645502,100.652987 C89.3580739,101.774659 85.518799,99.4784411 82.196891,98.4916348 C82.0683977,98.8587921 81.9368536,99.2260577 81.8083603,99.593215 C81.7295783,99.5157182 80.4445765,98.2729181 79.0045415,98.0583173 C79.0041805,98.0590394 78.9996675,98.0623248 78.9992704,98.0635524 C78.9991007,98.0653576 78.9993137,98.0716396 78.9992704,98.0740225 C79.0014366,98.231879 79.2932995,99.3583238 79.2932995,99.3583238 C79.2932959,99.3583274 75.5722644,97.6248193 73.6858424,98.5386599 C71.7992399,99.4525005 80.2626857,99.9333486 81.03657,100.799298 C81.1212117,100.893987 81.1564418,100.963014 81.1520804,101.00814 C81.1506363,101.015938 81.145329,101.027816 81.1415742,101.034207 C80.9546289,101.306447 78.4307226,100.300975 78.180343,100.799279 C77.8900145,101.376488 73.7792934,99.7426485 73.8276724,100.512128 C73.8760587,101.281788 74.4104775,101.712903 74.4104775,101.712903 C74.4104739,101.712903 82.9724867,102.530094 83.262761,103.540115 C83.552927,104.55019 78.5216139,102.965831 78.5216139,102.965831 C78.5216139,102.965831 78.034917,103.68379 78.4218555,104.020422 C78.436983,104.033564 78.4490417,104.046164 78.453338,104.051724 C78.4534644,104.052085 78.4533091,104.05667 78.453338,104.056959 C78.452977,104.056843 78.4487529,104.057125 78.4480669,104.056959 C78.2731838,103.999597 75.5471289,102.224151 75.8123111,103.587086 C74.7455711,103.164744 71.9914491,101.85656 72.3784815,102.866617 C72.7597373,103.861836 79.943124,105.278891 80.1545116,105.32041 C79.9645516,105.335285 76.926654,105.588011 77.0672782,106.380236 C72.9956755,103.913807 73.005243,105.39287 73.0978492,105.508366 C73.0980152,105.508525 73.0976795,105.513457 73.0978492,105.513601 C72.8691137,105.477642 67.8599141,104.236792 71.8429724,106.380254 C73.9790519,107.52969 74.4996683,107.977792 74.5103189,108.150097 C74.5103875,108.153888 74.5106799,108.162228 74.5103189,108.165766 C74.5095968,108.170352 74.5066724,108.17732 74.5050839,108.181435 C74.5047228,108.182519 74.5003543,108.185696 74.4998127,108.18667 C74.4980075,108.189559 74.4965634,108.194505 74.4945777,108.197104 C74.4938556,108.197827 74.4900647,108.201509 74.4893065,108.20234 C74.4885844,108.203062 74.4849019,108.206816 74.4840354,108.207575 C74.4833133,108.208297 74.4797029,108.212088 74.4788003,108.21281 C74.4777172,108.213532 74.4745401,108.217359 74.4735292,108.218045 C74.3907216,108.27072 74.19062,108.248661 74.1322402,108.249347 C74.129713,108.249437 74.1235392,108.249181 74.121734,108.249347 C74.1206509,108.249708 74.1166795,108.25404 74.116499,108.254582 L74.121734,108.259817 C74.1785614,108.343823 74.4910756,109.192124 74.4735111,109.340511 C74.4731501,109.343038 74.4688898,109.349031 74.46824,109.350945 C74.4678789,109.351667 74.468601,109.355422 74.46824,109.35618 C74.4680739,109.356541 74.4632576,109.355819 74.4629688,109.35618 C74.4626078,109.356346 74.4633299,109.361234 74.4629688,109.361415 C74.4626078,109.361509 74.4580948,109.36135 74.4576977,109.361415 C74.4573366,109.361372 74.4530042,109.361502 74.4524265,109.361415 C74.277872,109.31769 71.6397623,107.915856 70.7350018,107.8213 C69.8157818,107.725066 65.4611435,109.022364 70.1049368,111.042479 C74.7487302,113.062593 77.6011627,110.56062 80.1648914,110.849305 C82.7286202,111.137829 83.9402627,111.571652 83.6985479,112.389438 C83.4565985,113.207062 81.0759701,109.708733 78.5739788,112.734013 C75.7279186,112.174007 73.7970889,111.84994 75.2661513,113.929571 C70.6183325,112.202457 67.7800346,114.456487 73.63325,115.370508 C79.3849417,115.539073 82.921306,113.97656 82.921306,113.97656 C82.921306,113.976564 83.8915948,115.759725 85.2945873,114.509072 C86.6316002,113.317215 86.7367705,114.834097 86.7857272,114.978945 C86.7864493,114.981111 86.7902402,114.982953 86.7909983,114.98418 C86.7913594,114.984541 86.7906373,114.989198 86.7909983,114.989415 C86.7913594,114.989415 86.7956918,114.989487 86.7962334,114.989415 C86.8995299,114.963601 88.1456118,114.409913 88.1456118,114.409913 C88.2585191,114.409917 88.3739862,114.409913 88.4869007,114.409913 L88.4869007,125.953011 C90.0509702,125.969041 91.6115016,125.983952 93.1755169,126 C93.1755169,126 91.6759287,115.949793 92.4982102,114.603123 C93.2949482,113.298495 94.0481992,113.439318 94.0943578,113.449337 C94.0943578,113.449337 97.1424187,114.361137 97.4808915,114.216794 C97.4848268,114.214989 97.492878,114.213545 97.4966688,114.211559 C97.4991961,114.210115 97.5047922,114.207768 97.507175,114.206324 C97.51306,114.202606 97.522808,114.194988 97.5281874,114.190655 C97.5292706,114.189933 97.5323755,114.186323 97.5334586,114.18542 C97.7811666,113.960566 97.5288012,113.073262 99.0771114,113.209138 C99.5551795,113.036223 99.3727652,112.278401 99.6809109,112.091889 C99.6863625,112.08864 99.6961827,112.084235 99.7019232,112.081455 C99.7135487,112.076003 99.7309868,112.069721 99.7439264,112.065786 C99.7619783,112.060623 99.7861461,112.057446 99.8069311,112.055352 C100.290649,112.00724 109.625712,114.650491 111.657272,112.149326 C111.125156,110.754511 109.284712,112.054226 108.800922,112.102337 C108.365583,112.102341 106.526023,111.236605 105.461684,112.102337 C104.494247,111.380948 100.095581,110.901562 100.095581,110.901562 C99.5150862,110.324353 110.592571,111.188244 111.221319,110.755382 C112.527318,109.456621 108.80381,109.602047 108.223261,110.034913 C107.191307,109.409595 105.894568,109.455862 105.104437,109.888736 C104.725564,108.987586 101.12869,109.377886 99.1294438,109.121278 C98.4894684,108.748055 98.5960287,108.533834 99.0296855,108.301614 C103.205809,108.478032 107.360811,109.020242 111.557333,108.834127 C112.691605,107.363801 110.129411,106.809247 108.559276,108.061452 C107.637528,106.554192 105.75311,108.012459 104.495435,107.868279 C103.237833,107.723932 103.81811,106.186944 105.414276,106.427341 C107.010604,106.667918 109.864969,106.329229 110.396958,105.607677 C110.928892,104.886288 110.079317,104.155421 107.446196,104.840219 C106.555029,103.974162 104.595443,104.838775 103.676241,105.127371 C102.453424,104.449089 99.6084289,105.032981 98.6410284,105.273551 C97.6939182,104.688165 103.62371,103.733436 103.62371,103.733436 C105.912508,103.693174 107.203579,103.299397 107.929084,103.106946 C111.38927,101.262946 107.880907,101.067083 106.065227,102.407363 C104.938176,101.532442 103.867771,102.483008 102.851992,102.819813 C101.899646,103.135414 100.138432,103.365286 99.9221707,103.274016 C99.9196434,103.272933 99.9137224,103.270081 99.9116645,103.268781 C99.9113035,103.26842 99.9069349,103.264015 99.9063933,103.263546 L99.9011583,103.258311 C99.9009922,103.25795 99.9012738,103.253617 99.9011583,103.253076 C99.9011583,103.252715 99.9010753,103.248455 99.9011583,103.247841 C99.9018804,103.245675 99.9049131,103.239898 99.9063933,103.237407 C100.049054,103.017481 102.657681,101.42572 102.657681,101.42572 C102.657681,101.425716 106.044215,101.182597 106.721522,101.08638 C107.134224,101.027737 108.580685,100.346885 108.580144,100.094429 C108.568013,99.937728 107.965369,99.9521189 106.138626,100.412901 C104.493919,100.55724 103.527963,100.463977 102.899035,100.512088 C101.887624,100.408117 101.461509,100.302109 101.376394,100.209286 C101.373145,100.205351 101.36791,100.197516 101.365888,100.193617 C101.358812,100.176865 101.363361,100.157492 101.376394,100.141407 C101.379644,100.137689 101.387839,100.129421 101.392172,100.125738 C101.640096,99.9288464 103.240324,99.786381 103.240324,99.786381 C103.240324,99.7863846 108.125705,99.3408965 108.448834,99.0867982 C108.449917,99.0857151 108.453058,99.0825741 108.454069,99.0815632 C108.455874,99.0793969 108.458185,99.0731149 108.459304,99.0711292 C108.459665,99.0700461 108.464287,99.0668689 108.464575,99.0658941 C108.565099,97.0798257 104.320043,97.9969156 104.206497,98.011303 C104.218628,96.614755 100.375165,97.990796 100.195187,98.011303 C100.194826,98.0112524 100.190169,98.0113969 100.189916,98.011303 C100.024554,97.9144294 99.9524798,97.8122087 99.9378939,97.7189347 C99.9331643,97.6833724 99.9377278,97.643355 99.9484001,97.6092983 C100.044674,97.3213347 100.625707,97.0976718 100.625707,97.0976718 C101.68992,96.8412267 103.281139,96.7611666 103.697235,96.4241921 C103.697235,96.4241921 106.700888,96.3979085 107.057593,95.6045282 C106.320517,93.5825365 100.700983,95.962461 99.9484001,96.324997 C99.7976127,96.324997 99.7052773,96.2873299 99.6596241,96.2258019 C99.4125299,95.8668221 100.631953,94.6846944 100.672967,94.6439152 C100.673328,94.6435541 100.677263,94.6390773 100.678202,94.6386801 C100.864046,94.586261 105.350752,94.3579913 107.49333,91.4696717 C107.644547,89.6837445 104.931045,92.4772737 104.931045,92.4772737 C104.728413,90.1610364 101.980465,92.6241692 100.384136,92.8166311 C98.7879707,93.0089198 98.7412344,92.0943391 99.8538262,91.9499782 C100.966256,91.8058014 102.222956,91.9001911 102.851883,90.2166903 C103.480612,88.5331896 105.36958,90.3147193 105.708233,89.6893948 C106.036218,89.0836096 105.090191,88.5672354 105.030926,88.5356085 C105.03093,88.5356085 106.432764,87.0883347 104.159345,87.136443 C101.908817,87.1840747 98.9992139,86.8559889 98.9403648,86.8493097 C99.0815052,86.7957425 101.373759,85.9360468 103.529334,85.9826568 C105.75459,86.0307686 104.544663,84.395535 102.416219,84.395535 C100.287902,84.395535 99.1766278,83.6750662 99.1766278,83.6750662 C100.386014,83.22617 101.5954,82.777003 102.804696,82.3281068 C102.724043,81.9914752 102.643814,81.6571362 102.563161,81.3205047 C102.563161,81.3205047 104.690757,79.6357944 101.69158,80.0205343 C98.6924402,80.4054546 98.3523426,80.4538517 98.3523426,80.4538517 C98.352339,80.4538517 92.4484736,81.3534313 92.3089325,81.3674937 C92.3085715,81.3674937 92.304239,81.3675551 92.3036614,81.3674937 C92.2465163,81.3585942 91.6617544,81.1779309 91.5528474,80.9550443 C91.549598,80.9477332 91.5446157,80.9363425 91.5423412,80.9289557 C91.5398139,80.9200561 91.5379365,80.9066508 91.53707,80.8976429 C91.5363479,80.8871186 91.5352648,80.8717709 91.53707,80.8610986 C91.5614401,80.7436441 91.7435475,80.61664 92.2091417,80.5008733 C93.7570728,80.1161154 99.2259095,79.0114122 100.048173,79.300098 C100.154188,79.3372885 100.23158,79.3288871 100.279201,79.2896459 C100.587527,79.0122246 99.5617467,77.2429232 97.0448446,76.9925435 C94.1424625,76.7040203 92.3562285,77.7130123 92.3562285,77.7130123 C92.3562285,77.7130123 90.4676402,77.03724 92.2092139,76.460031 C93.9505349,75.8829844 96.7088268,76.6532042 96.7088268,76.6532042 C96.7088232,76.6532042 99.8029199,75.7379736 97.239119,75.3532338 C94.6753903,74.9683135 93.8670268,75.6993065 92.6922102,75.7395802 C92.2232763,75.1575333 96.717239,75.0201224 96.9975848,74.5388049 C96.5236145,73.6727477 93.7431909,74.5388049 92.1145498,74.5388049 C91.4218268,74.2466171 91.375993,73.7711846 92.1618061,73.4789968 C93.8226517,73.414844 95.383887,73.5118224 97.044841,73.447684 C96.9964547,72.5659216 97.0459241,71.5206453 96.9975884,70.6389912 C94.8909334,70.2562371 92.4205329,70.9192828 91.2377734,70.8634844 C91.5541507,69.9013551 96.1025759,69.6530153 96.6091118,69.3912268 C97.6541715,68.0923396 92.2465127,69.3711568 92.114734,69.3912268 C91.1548611,69.2502218 91.2129881,68.6469476 91.8207049,68.2844297 C93.2234627,68.1240495 96.3692384,68.4888312 96.1313145,67.5430748 C95.9490266,66.6568536 93.9502857,67.1313474 93.1280224,67.3237986 C92.305759,67.5160873 91.0961022,67.370784 91.0961022,67.370784 C90.5695287,66.6658579 95.8383324,66.9539841 95.7901339,66.410171 C95.7214212,65.7858105 92.4503546,66.2158786 91.3376364,66.2639869 C90.4819048,65.6769034 95.3606795,65.2865675 95.59048,65.2093957 C95.5915631,65.2086737 95.5951013,65.2047131 95.5957512,65.2041715 C95.7780572,63.6052258 92.2092175,65.2041715 91.5319108,65.2041715 C91.415505,65.2041715 91.327401,65.1752741 91.2641291,65.1258588 C91.2500126,65.1144356 91.2339825,65.097391 91.2221224,65.084094 C90.9896141,64.8143808 91.1958749,64.196555 91.1958749,64.196555 C91.1958749,64.196555 92.4676844,63.6282997 92.5452534,63.4917552 C92.5456144,63.4906721 92.5501274,63.4875744 92.5505245,63.486531 C92.5506798,63.48617 92.5504126,63.4818087 92.5505245,63.4813068 C92.5505101,63.4809458 92.5505823,63.4765158 92.5505245,63.4760826 C92.5501635,63.4753605 92.5457949,63.4716491 92.5452534,63.4708584 C92.5423651,63.466822 92.5352887,63.4599045 92.529476,63.4551857 C92.3801833,63.3408722 91.5053926,63.0523218 91.3901313,63.0427363 C91.3894092,63.0426965 91.3856183,63.0427363 91.3848601,63.0427363 C91.3841381,63.0424655 91.3803111,63.0379092 91.3796251,63.037512 C91.3781809,63.0364289 91.3756176,63.0338367 91.3743539,63.0322878 C91.3736319,63.0315658 91.3696966,63.0280709 91.3690828,63.0270636 C91.3031934,62.8926023 91.3848601,61.9359174 91.3848601,61.9359174 C91.3848601,61.9359174 92.3926066,61.1850131 92.4559687,60.8865433 C92.4563298,60.884016 92.4556077,60.8785066 92.4559687,60.8760948 C92.4563298,60.8735676 92.455846,60.8679498 92.4559687,60.8656464 C92.4560229,60.8634802 92.456059,60.8574328 92.4559687,60.855198 C92.4558099,60.8530318 92.4563298,60.8468761 92.4559687,60.8447496 C92.4558027,60.8436664 92.4561348,60.8405326 92.4559687,60.8395253 C92.4552467,60.836637 92.4518529,60.8318858 92.4506976,60.8290769 C92.4503366,60.8279938 92.4510586,60.8247878 92.4506976,60.8238527 C92.4503366,60.8231306 92.4459319,60.8195275 92.4454264,60.8186285 C92.4443433,60.8168233 92.4413467,60.8150181 92.4401553,60.8134043 C92.4383501,60.810877 92.436906,60.8051906 92.4349202,60.8029558 C92.4341982,60.8022338 92.4304795,60.7984501 92.4296491,60.7977316 C92.4256055,60.7944823 92.4187458,60.7902365 92.4138717,60.7872832 C92.4117055,60.7862001 92.4054957,60.7831385 92.4033655,60.782059 C92.148852,60.6605463 91.0959939,61.0222212 91.0959939,61.0222212 C91.0959903,60.7015656 91.0959939,60.3822639 91.0959939,60.0615902 C91.0959903,60.0615902 92.0178134,59.9619528 92.1145895,59.5290776 C92.1202578,59.5037111 92.1174778,59.478776 92.1145895,59.4559855 C92.1131454,59.4469415 92.1120623,59.4333196 92.1093184,59.4246727 C92.1033252,59.4060793 92.0942631,59.3840686 92.0830348,59.3672443 C92.0812297,59.364717 92.0744421,59.3593159 92.0725286,59.3567958 C91.8616104,59.0860717 91.00142,59.0487765 91.00142,59.0487765 C90.8401301,57.3653299 90.6796813,55.6837246 90.5183696,54.0003863 L90.5189148,54 Z M89.6578399,70.4871478 L89.6578399,71.1501935 C89.6578435,71.1501935 88.573048,71.0949439 88.3714626,70.9257003 C88.3703794,70.9249782 88.3670579,70.9212956 88.3661914,70.9204833 C88.3654693,70.9197612 88.3617506,70.9161147 88.3609203,70.9152663 C88.3601982,70.9145442 88.3564073,70.9108977 88.3556491,70.9100493 C88.354927,70.9093272 88.3510639,70.9056807 88.350378,70.9048323 C88.3485728,70.902305 88.3464787,70.8970519 88.3451068,70.8943803 C88.3447458,70.8936582 88.3454678,70.8900478 88.3451068,70.8891633 C88.3447458,70.8884412 88.3401245,70.8848308 88.3398718,70.8839463 C88.3397057,70.8832242 88.3400306,70.8796138 88.3398718,70.8787293 C88.3397057,70.8769241 88.3398898,70.8701546 88.3398718,70.8682772 C88.3399115,70.8671941 88.3397815,70.8639809 88.3398718,70.8630602 C88.3400162,70.8619771 88.3397057,70.8588 88.3398718,70.8578432 C88.3409549,70.8539801 88.3431211,70.8461276 88.3451068,70.8421742 C88.3454678,70.8410911 88.3498003,70.8379501 88.350378,70.8369572 C88.3529052,70.8329136 88.3574543,70.8253859 88.3608841,70.8212882 C88.3619673,70.8202051 88.3651444,70.8171001 88.3661553,70.8160712 C88.3683215,70.8139049 88.3743509,70.8077493 88.3766615,70.8056191 C88.3839184,70.7992468 88.3934136,70.7913581 88.4029089,70.7847187 C88.766853,70.5313604 89.4935136,70.5373356 89.6367733,70.4975854 C89.6378565,70.4972243 89.6409253,70.4979464 89.6420445,70.4975854 C89.6431276,70.4972243 89.6463769,70.4927655 89.6472795,70.4923684 C89.6480016,70.4920073 89.6518647,70.4927294 89.6525507,70.4923684 C89.6532728,70.4920073 89.6572803,70.4875846 89.6578218,70.4871514 L89.6578399,70.4871478 Z M91.1962396,71.3694517 C91.2337225,71.3694517 93.3570503,71.3876119 93.5431652,71.66182 C93.5446093,71.6639863 93.5472449,71.6698892 93.5484363,71.6722721 C93.5498805,71.6758825 93.5528049,71.6842766 93.5537075,71.6879411 C93.5540685,71.6904684 93.5535775,71.6958659 93.5537075,71.6983932 C93.5536822,71.7021841 93.5544296,71.7102171 93.5537075,71.7140622 C93.5526244,71.7179614 93.5500971,71.7257418 93.5484363,71.7297312 C93.3863015,72.0722116 91.2381561,72.2779128 91.2381561,72.2779128 L91.1961529,71.3695059 L91.1962396,71.3694517 Z M91.0754761,72.6798561 C91.0761982,72.6802171 91.079953,72.6794951 91.0807111,72.6798561 C91.0814332,72.6802171 91.0848992,72.6794951 91.0859823,72.6798561 C91.2120422,72.7129705 92.0914903,72.7413192 92.1990976,72.8886803 C92.2001808,72.8901245 92.2035384,72.8925073 92.2043688,72.8938973 C92.2047298,72.8946194 92.2040078,72.8984103 92.2043688,72.8991143 C92.2050909,72.9005585 92.2091345,72.9028691 92.2096399,72.9043313 C92.209806,72.9050534 92.2094847,72.9088443 92.2096399,72.9095483 C92.2097194,72.9102704 92.209593,72.9140252 92.2096399,72.9147653 C92.2096435,72.9154874 92.2096688,72.9192241 92.2096399,72.9199823 C92.2095677,72.9207044 92.2097446,72.924423 92.2096399,72.9251993 C92.2094955,72.9259214 92.209806,72.92964 92.2096399,72.9304163 C92.2092789,72.9311384 92.2046576,72.9348209 92.2043688,72.9356333 C92.2040078,72.9363553 92.2047298,72.9400379 92.2043688,72.9408503 C92.2029246,72.9433775 92.2007584,72.948775 92.1990976,72.9513023 C92.1983756,72.9520244 92.1944764,72.9556709 92.1938265,72.9565193 C92.1931044,72.9572414 92.1945486,72.9608879 92.1938265,72.9617363 C92.0115205,73.183269 91.1999619,73.2436706 91.1594715,73.2436706 C91.1591105,73.2435984 91.1545253,73.2438042 91.1542004,73.2436706 C91.1538393,73.2435046 91.1545614,73.2387064 91.1542004,73.2384536 C91.1534783,73.2373705 91.1496152,73.2343739 91.1489653,73.2332366 C91.1118651,73.1583394 91.0754544,72.6798381 91.0754544,72.6798381 L91.0754761,72.6798561 Z M84.6015285,74.423596 C85.2948112,74.3877811 86.6706356,74.5501271 89.2534993,75.2589289 C89.2534993,75.3135864 89.3057992,75.9795241 89.2849818,76.0890268 C89.2848157,76.0897489 89.2799634,76.0934676 89.2797107,76.0942438 C89.2795446,76.0949659 89.2798804,76.0989554 89.2797107,76.0994608 C89.2793496,76.0998219 89.2750533,76.1046056 89.2744395,76.1046778 C89.2339491,76.0844633 84.5753533,74.7533317 84.1498703,74.7733874 C84.1382449,74.7737484 84.1241645,74.7744705 84.1131167,74.7733874 C84.1037297,74.7723043 84.0904435,74.7701381 84.0816342,74.7681704 C84.0700449,74.7652821 84.0550618,74.7571407 84.0448842,74.7525014 C84.0411294,74.7506962 84.032645,74.749252 84.0291068,74.7472844 C84.0280237,74.7465623 84.024991,74.7427714 84.0238357,74.7420674 C84.009683,74.7325179 83.9956387,74.7180331 83.9870857,74.7055231 C83.9863636,74.70444 83.9824283,74.701299 83.9818145,74.7003061 C83.9807314,74.6981399 83.9775182,74.691912 83.9765795,74.6898541 C83.9762184,74.688771 83.9769405,74.6857022 83.9765795,74.6846371 C83.9758574,74.6824709 83.9718138,74.6763513 83.9713083,74.6741851 C83.9711422,74.6731019 83.9714744,74.6700692 83.9713083,74.6689681 C83.9711422,74.6668018 83.9713625,74.6607906 83.9713083,74.658516 C83.9713516,74.6563498 83.9711422,74.6503746 83.9713083,74.648064 C83.9720304,74.6422693 83.9745577,74.633117 83.9765795,74.6271635 C83.98232,74.6129025 83.9940898,74.5945185 84.008062,74.5801781 C84.0792983,74.5108985 84.2577015,74.4413013 84.6013733,74.4235527 L84.6015285,74.423596 Z M87.0166902,76.3917931 C87.7592726,76.3653073 89.5383581,76.7909202 89.6367408,76.7676875 C89.6367372,76.9087503 89.7154651,77.5755093 89.6262347,77.7126495 C89.6255126,77.7137326 89.6218661,77.7168014 89.6209635,77.7178665 C89.6202414,77.7189496 89.616631,77.7221989 89.6156923,77.7230835 C89.6146092,77.7238056 89.611396,77.7276145 89.6104212,77.7283005 C89.608616,77.7293836 89.602009,77.7327051 89.599915,77.7335175 C89.5988319,77.7338785 89.5957992,77.7333514 89.5946439,77.7335175 C89.5924776,77.7336835 89.5865205,77.7336835 89.5841377,77.7335175 C89.5830545,77.7333514 89.5801662,77.7338785 89.5788665,77.7335175 C89.4276495,77.6959298 86.8021255,76.8667382 86.7015765,76.5275252 C86.7001324,76.5219471 86.7014574,76.5119645 86.7015765,76.5066247 C86.7026596,76.4948007 86.7084362,76.4803556 86.7173539,76.4700805 C86.718437,76.4689974 86.7213975,76.4659285 86.722625,76.4648635 C86.7237081,76.4637804 86.7265964,76.4607115 86.7278962,76.4596465 C86.7783006,76.4199215 86.8823048,76.3965678 87.0166722,76.3917768 L87.0166902,76.3917931 Z M94.325357,78.2190049 C95.0344892,78.2052132 95.5351402,78.2655841 95.3492058,78.4800351 C94.8428143,79.0640858 91.3431314,79.5450783 91.3431314,79.5450783 L91.2801267,78.4800351 C91.3552875,78.4690415 93.1335138,78.2421654 94.3254797,78.2190049 L94.325357,78.2190049 Z M84.3074633,81.5394686 C84.9025798,81.5079753 86.2884772,81.8329381 89.3742664,83.1318074 L89.3952788,83.8992652 C89.3952824,83.8992652 84.1696191,82.3233356 83.9872951,82.0615833 C83.89757,81.9327308 83.7307778,81.5700485 84.3075716,81.5395047 L84.3074633,81.5394686 Z M94.545951,82.6828209 C94.7049376,82.6747878 94.8168376,82.6907818 94.8557214,82.7298063 C94.8568045,82.7308894 94.860126,82.7339222 94.8609564,82.7350233 C94.8631226,82.7386337 94.8649639,82.7468834 94.8662276,82.7506924 C94.8669496,82.7546277 94.8715709,82.7620831 94.8714987,82.7663614 C94.8693325,82.7883775 94.8527248,82.8180313 94.8242425,82.8498947 C94.3379969,83.3938521 91.7263585,83.9358058 91.7263585,83.9358058 C91.7263585,83.9358058 91.7263549,83.2512242 91.7263585,83.2310061 C91.7267195,83.2310422 91.731052,83.2309989 91.7316296,83.2310061 C91.8506782,83.2269625 93.7677018,82.7221595 94.5459185,82.6828245 L94.545951,82.6828209 Z M83.0893221,82.7767936 C83.8694704,82.7356624 85.6310275,83.14711 89.5789748,85.0060209 C89.5789712,85.0253003 89.6141399,85.666413 89.5999511,85.7264897 C89.5995901,85.7264139 89.5952215,85.7266377 89.59468,85.7264897 C89.3606192,85.6514733 82.4907216,83.2519372 82.4907216,83.2519372 C82.4833925,83.225632 82.3800491,82.8142512 83.089286,82.7768477 L83.0893221,82.7767936 Z M96.1682739,85.7788221 C96.3679097,85.7704821 96.4988942,85.7876675 96.5305572,85.8310281 C96.5334455,85.8360466 96.5354312,85.8461195 96.5358284,85.8519322 C96.5351063,85.8728002 96.5176682,85.8993978 96.4833191,85.9302413 C95.8603485,86.4896692 91.8885727,87.1674272 91.747407,87.1780057 C91.7466849,87.1780057 91.7427496,87.1780851 91.7421358,87.1780057 C91.7417748,87.1778396 91.7374423,87.1783667 91.7369008,87.1780057 C91.7365397,87.1776446 91.7321351,87.1732761 91.7316296,87.1727706 C91.7301855,87.1709654 91.7274777,87.1648639 91.7263585,87.1623366 C91.7259974,87.1612535 91.7267195,87.1580764 91.7263585,87.1571016 C91.7256364,87.1549353 91.7216289,87.1490143 91.7210873,87.1466676 C91.6958508,87.0170009 91.7780663,86.5629057 91.784092,86.4992909 C91.7841498,86.4982078 91.784092,86.4947057 91.784092,86.4940558 C91.7842581,86.4942219 91.788966,86.4938898 91.7893632,86.4940558 C91.7900852,86.4941786 91.7937317,86.4992187 91.7945982,86.4992909 C91.7956813,86.4993414 91.7986779,86.4992764 91.7998694,86.4992909 C92.0540941,86.4950667 95.0979488,85.82332 96.1682451,85.7788221 L96.1682739,85.7788221 Z M84.4912315,87.527779 C85.673648,87.4670416 89.2563876,89.1005856 89.4320325,89.1514377 C89.4323935,89.151528 89.4369426,89.1514269 89.4373036,89.1514377 C89.4188907,89.2244143 89.415858,89.8141947 89.4005536,89.9084435 C89.4001926,89.9109708 89.4009146,89.9175056 89.4005536,89.9188775 C89.4004092,89.9192386 89.3954269,89.9187151 89.3952824,89.9188775 C89.2986976,89.8674405 84.3884116,87.8411056 84.1710669,88.0028504 C84.0356127,87.6836751 84.1760492,87.5439535 84.4913434,87.5277609 L84.4912315,87.527779 Z M95.0551947,87.9558794 C95.3012238,87.9451205 95.4813095,87.955995 95.5382451,87.9871814 C95.5451409,87.9915139 95.5514591,87.9975793 95.5540224,88.0028504 C95.5543835,88.0035725 95.5538564,88.0071468 95.5540224,88.0080855 C95.5540658,88.0091686 95.5541091,88.0123457 95.5540224,88.0133205 C95.5536614,88.0154868 95.5551056,88.0216605 95.5540224,88.0237545 C95.5533004,88.0248376 95.5495456,88.0278704 95.5487513,88.0289896 C95.5451409,88.0335748 95.5387144,88.0396041 95.5329739,88.0446586 C95.16838,88.3669209 91.784139,89.0313747 91.784139,89.0313747 C91.784139,89.0313747 91.7683616,88.4079347 91.7683616,88.3474609 C91.8644843,88.3270262 94.0492173,88.0000343 95.0552489,87.9558975 L95.0551947,87.9558794 Z M94.7821599,90.1119966 C95.0202824,90.104126 95.1891036,90.1176288 95.2284567,90.1589821 L95.2336917,90.1642171 C95.2347749,90.1660223 95.2333307,90.1727376 95.2336917,90.1746511 C95.2338542,90.1757342 95.2388907,90.1788752 95.2389629,90.1798861 C95.2389123,90.1809692 95.2338723,90.1840742 95.2336917,90.1851212 C95.2333307,90.1872874 95.2347749,90.1932806 95.2336917,90.1955552 C95.2329697,90.1966383 95.2291427,90.1995988 95.2284567,90.2007902 C95.2255684,90.2055198 95.2221746,90.2115491 95.2179505,90.2164593 C95.2147012,90.2201779 95.2063973,90.2283374 95.2021732,90.2321283 C94.8368933,90.5456173 91.9678169,91.1457522 91.9678169,91.1457522 C91.9678169,91.1457522 91.8890601,90.4611706 91.8890601,90.4409525 C91.9686473,90.4427577 93.8868623,90.1415981 94.7820552,90.1120471 L94.7821599,90.1119966 Z M82.67458,90.2842802 C83.3668157,90.2407607 85.08216,90.5243883 89.3164101,92.0541231 L89.4581752,92.879004 C89.4581752,92.8790076 82.4080115,90.6160197 82.2072745,90.5452563 C82.2076355,90.5452563 82.2071229,90.5405989 82.2072745,90.5400212 C82.2074406,90.5356527 82.2061914,90.5250743 82.2072745,90.5138821 C82.2098018,90.4931585 82.2203441,90.4605388 82.2440245,90.4303452 C82.2937105,90.3697847 82.4072208,90.3009782 82.674562,90.2841683 L82.67458,90.2842802 Z M91.962636,92.0750091 C92.0475954,92.093061 93.229752,92.1320784 93.4485228,92.3151714 C93.4496059,92.3158935 93.4528191,92.31954 93.4537939,92.3204065 C93.454516,92.3211285 93.4581625,92.3247389 93.4590651,92.3256415 C93.4597871,92.3263636 93.463578,92.329974 93.4643362,92.3308766 C93.4665024,92.3337649 93.4679466,92.3385667 93.4696074,92.3413106 C93.4699684,92.3423937 93.4743731,92.3456069 93.4748424,92.3465456 C93.4766476,92.3503365 93.4791388,92.3583154 93.4801136,92.3622146 C93.4802796,92.3632977 93.4799655,92.3664388 93.4801136,92.3674497 C93.480211,92.3685328 93.4800702,92.3716738 93.4801136,92.3726847 C93.4801063,92.374851 93.4802796,92.3810969 93.4801136,92.3831187 C93.4799511,92.3842018 93.4802796,92.3873068 93.4801136,92.3883538 C93.4797525,92.39052 93.4756006,92.3966576 93.4748424,92.3987878 C93.4744814,92.3998709 93.4752035,92.4029397 93.4748424,92.4040228 C93.4737593,92.406189 93.4709071,92.4122906 93.4696074,92.4144568 C93.2873014,92.6964633 92.0519748,92.8008032 92.0519748,92.8008032 C92.0519748,92.8008032 91.9912807,92.2481989 91.9627154,92.0751175 L91.962636,92.0750091 Z M94.8242208,93.6829989 C95.099494,93.676428 95.2970719,93.7077661 95.3387718,93.787411 C95.3622392,93.8413933 95.3170734,93.9211357 95.1865113,94.0275733 C94.1737103,94.8533748 91.9678602,95.0142893 91.9678602,95.0142893 L91.9678602,94.1058823 C91.9682212,94.1059257 91.9720844,94.1059509 91.9731314,94.1058823 C92.0984331,94.0910798 93.9102792,93.7047875 94.8242461,93.6829989 L94.8242208,93.6829989 Z M97.6332747,94.5287658 C97.9829036,94.5155879 98.1335466,94.5738702 98.1793262,94.6540639 C98.1830087,94.6611764 98.1877022,94.6726935 98.1898324,94.6802031 C98.1930817,94.6937781 98.1962227,94.7126964 98.1951035,94.7271957 C98.1838391,94.8306655 98.0711484,94.9546495 97.9850879,95.035215 C97.6406579,95.3574773 92.1518017,97.0869923 92.1518017,97.0869923 C92.1518017,97.0869923 92.1104737,95.939795 92.1307893,95.839228 C95.3398729,94.8721885 96.9094843,94.5560819 97.6333649,94.5288236 L97.6332747,94.5287658 Z M94.083913,97.7761194 C94.432874,97.7631943 94.7057463,97.7837012 94.7874852,97.8648661 C94.7925037,97.8702456 94.7999049,97.8798131 94.8032626,97.8857702 C94.8050678,97.8894167 94.8073062,97.8975761 94.8084976,97.9014392 C94.8095808,97.9053384 94.8081366,97.9129924 94.8084976,97.9171083 C94.8086673,97.9240763 94.8103028,97.9356295 94.8084976,97.9432474 C94.8045262,97.9586276 94.7939478,97.977546 94.7822141,97.995457 C94.3126124,98.4537222 92.0309263,98.5227526 92.0309263,98.5227526 L92.0309263,97.953685 C92.4593878,97.9393157 93.4131411,97.8010455 94.0837867,97.7761808 L94.083913,97.7761194 Z M96.3678375,98.7106294 C96.4763149,98.7081021 96.5424679,98.7256125 96.5516057,98.7576185 C96.5519668,98.7601457 96.5519668,98.7653808 96.5516057,98.7680525 C96.546118,98.794697 96.5142492,98.8350683 96.4465943,98.8829058 C95.5351005,99.5272678 92.1096289,100.188093 92.1096289,100.188093 C92.1096289,100.188093 92.1520725,99.7377708 92.1726336,99.6294776 C92.2679114,99.6280334 95.5481556,98.730584 96.3677112,98.7106186 L96.3678375,98.7106294 Z M98.2894607,99.4258812 C98.6931009,99.4220903 99.0011743,99.4813149 99.1768011,99.6086024 C99.1771622,99.6086024 99.1817473,99.6085157 99.1820723,99.6086024 C99.1822023,99.6089634 99.1819748,99.6132598 99.1820723,99.6138374 C99.1821337,99.6145595 99.1820434,99.6183504 99.1820723,99.6190725 C99.1819892,99.6208777 99.1822384,99.6274486 99.1820723,99.6295065 C99.1648869,99.7543497 98.9082793,100.341653 98.0059559,100.595355 C96.8805472,100.495401 92.104253,101.899441 92.0098417,101.921428 C92.0094806,101.921067 92.0048232,101.921789 92.0046066,101.921428 C92.0042456,101.919623 92.0047727,101.913593 92.0046066,101.910994 C92.0020794,101.821056 92.0676149,101.336709 92.0676113,101.336709 C93.7140335,100.357683 96.7060432,99.4407199 98.2893741,99.4259173 L98.2894607,99.4258812 Z M86.0611137,102.182404 C86.071656,102.182238 86.081404,102.182368 86.0925962,102.182404 C88.1586344,102.403937 88.9303525,103.172965 89.1484193,103.482374 C88.7364572,104.201201 85.4712503,102.589095 85.8144166,102.245062 C85.8536939,102.210186 85.9345339,102.185032 86.0611859,102.182411 L86.0611137,102.182404 Z M97.9009841,102.318147 C97.9830408,102.314898 98.0579814,102.331722 98.1109998,102.365132 C98.132662,102.379538 98.1540355,102.400225 98.1687586,102.422559 C98.1886518,102.454619 98.2019018,102.498012 98.2055122,102.547857 C97.9896839,102.87947 96.8734456,102.734712 96.8036209,102.725361 C96.8598525,102.705432 97.504359,102.333166 97.9009769,102.318147 L97.9009841,102.318147 Z M93.4748424,104.552609 C93.6280343,104.546327 93.7553146,104.561708 93.8266195,104.604812 C93.8352483,104.610372 93.8460433,104.619145 93.8528669,104.625716 C93.8550332,104.627882 93.8614235,104.633767 93.8633731,104.63615 C93.8662614,104.63976 93.8715687,104.64792 93.8738793,104.651819 C93.8760456,104.65579 93.8774897,104.663228 93.8791505,104.667488 C93.8921478,104.706505 93.8870933,104.760379 93.852903,104.82411 C93.5287995,105.428379 92.1097408,105.205221 92.1097408,105.205221 L92.1097408,104.782338 C92.1101018,104.782457 92.1146509,104.78224 92.1149759,104.782338 C92.194906,104.789089 92.9769895,104.572972 93.4748605,104.552627 L93.4748424,104.552609 Z M85.1160975,106.144948 C85.5526823,106.123033 85.9342811,106.40782 86.3342207,106.635689 C87.2253881,106.45443 89.0539177,106.776652 89.0539177,106.776652 L89.0539177,107.580647 C89.0539177,107.581369 89.0498019,107.585304 89.0486465,107.585882 C89.0479245,107.586243 89.0444946,107.585521 89.0434115,107.585882 C88.8769659,107.614693 86.7340338,107.521599 86.2554783,107.22044 C85.8651244,107.22044 84.7600602,106.640523 84.6750719,106.343353 C84.6743498,106.340826 84.6703423,106.335374 84.6698007,106.332919 C84.6690787,106.329236 84.6701618,106.32086 84.6698007,106.31725 C84.6696816,106.314722 84.6697538,106.309126 84.6698007,106.30678 C84.6699235,106.304613 84.6694397,106.298548 84.6698007,106.296346 C84.6699668,106.295263 84.6696311,106.29223 84.6698007,106.291111 C84.6701618,106.288944 84.6743498,106.282771 84.6750719,106.280677 C84.6754329,106.279594 84.6747109,106.276489 84.6750719,106.275442 C84.8277872,106.194522 84.9765925,106.151923 85.1161156,106.144923 L85.1160975,106.144948 Z M94.4882752,106.541729 C94.8234807,106.523785 94.9656032,106.626811 94.703544,106.995932 C93.9743561,108.023048 92.0887284,107.601537 92.0887284,107.601537 L92.0099716,106.964594 C92.6750573,106.990408 93.890617,106.573735 94.4881344,106.54171 L94.4882752,106.541729 Z M87.4420829,108.624736 C88.2045223,108.58939 89.0329775,108.891001 89.0329775,108.891001 C89.0525096,108.92969 89.4427553,109.694617 89.0959858,109.950809 C89.0830967,109.960052 89.0689441,109.969114 89.0539827,109.976912 C88.6285539,110.198445 86.5953159,109.803791 86.4759929,108.990196 C86.7152526,108.739076 87.0697195,108.641993 87.4420757,108.624736 L87.4420829,108.624736 Z M79.5821116,109.021516 C80.2794017,108.97991 81.0582864,109.407032 81.1467587,109.449616 C81.1478418,109.449978 81.1513439,109.44945 81.1519938,109.449616 C81.1519938,109.473698 81.1257463,110.222291 81.1257463,110.222291 C81.1257463,110.222291 79.7454089,109.839682 79.3090046,109.068505 C79.3964985,109.044785 79.4899387,109.027011 79.5820394,109.021516 L79.5821116,109.021516 Z M92.8607173,109.125932 C93.6384105,109.121022 94.5779751,109.302689 94.7141043,109.564484 C94.7398463,109.618026 94.7321923,109.677052 94.6826218,109.736771 C94.2977015,110.199874 92.1098672,109.778536 92.1098672,109.778536 L92.1098672,109.214704 C92.3045206,109.158086 92.5726453,109.127766 92.8606812,109.125946 L92.8607173,109.125932 Z" id="tree" fill="#1AAF5D"></path>
            </g>
        </g>
    </g>
</svg>