<?xml version="1.0" encoding="UTF-8" standalone="no"?>
<svg width="180px" height="180px" viewBox="0 0 180 180" version="1.1" xmlns="http://www.w3.org/2000/svg" xmlns:xlink="http://www.w3.org/1999/xlink">
    <!-- Generator: Sketch 3.8.3 (29802) - http://www.bohemiancoding.com/sketch -->
    <title>northern_cyprus</title>
    <desc>Created with Sketch.</desc>
    <defs></defs>
    <g id="Page-1" stroke="none" stroke-width="1" fill="none" fill-rule="evenodd">
        <g id="flags" transform="translate(-2070.000000, -4230.000000)">
            <g id="northern_cyprus" transform="translate(2070.000000, 4230.000000)">
                <circle id="white" fill="#FFFFFF" cx="90" cy="90" r="90"></circle>
                <path d="M108.884831,112.086026 C101.596808,123.596186 88.7503458,131.238058 74.1190291,131.238058 C51.4096164,131.238058 33,112.828442 33,90.1190291 C33,67.4096164 51.4096164,49 74.1190291,49 C88.7503458,49 101.596808,56.6418719 108.884831,68.152032 C102.862543,61.4436167 94.1234597,57.2238058 84.3987864,57.2238058 C66.2312562,57.2238058 51.5035631,71.951499 51.5035631,90.1190291 C51.5035631,108.286559 66.2312562,123.014252 84.3987864,123.014252 C94.1234597,123.014252 102.862543,118.794442 108.884831,112.086026 Z M132.125825,98.3071807 L122.864452,110.865453 L122.753411,95.2618988 L107.947863,90.3345292 L122.753411,85.4071597 L122.864452,69.8036059 L132.125825,82.3618778 L147,77.6457208 L137.918295,90.3345292 L147,103.023338 L132.125825,98.3071807 Z" id="moon" fill="#E94B35"></path>
                <path d="M144.008774,18 C150.823356,23.1199262 156.887476,29.1847738 162.006591,36 L17.9934086,36 C23.1125238,29.1847738 29.1766437,23.1199262 35.9912258,18 L144.008774,18 Z M162.006591,144 C156.887476,150.815226 150.823356,156.880074 144.008774,162 L35.9912258,162 C29.1766437,156.880074 23.1125238,150.815226 17.9934086,144 L162.006591,144 Z" id="red" fill="#E94B35"></path>
            </g>
        </g>
    </g>
</svg>