<?xml version="1.0" encoding="UTF-8" standalone="no"?>
<svg width="180px" height="180px" viewBox="0 0 180 180" version="1.1" xmlns="http://www.w3.org/2000/svg" xmlns:xlink="http://www.w3.org/1999/xlink">
    <!-- Generator: Sketch 3.8.3 (29802) - http://www.bohemiancoding.com/sketch -->
    <title>northern_ireland</title>
    <desc>Created with Sketch.</desc>
    <defs></defs>
    <g id="Page-1" stroke="none" stroke-width="1" fill="none" fill-rule="evenodd">
        <g id="flags" transform="translate(-2340.000000, -4230.000000)">
            <g id="northern_ireland" transform="translate(2340.000000, 4230.000000)">
                <circle id="white" fill="#FFFFFF" cx="90" cy="90" r="90"></circle>
                <path d="M75,1.24437643 L75,75 L1.24437643,75 C0.425981881,79.8781271 0,84.8893168 0,90 C0,95.1106832 0.425981881,100.121873 1.24437643,105 L75,105 L75,178.755624 C79.8781271,179.574018 84.8893168,180 90,180 C95.1106832,180 100.121873,179.574018 105,178.755624 L105,105 L178.755624,105 C179.574018,100.121873 180,95.1106832 180,90 C180,84.8893168 179.574018,79.8781271 178.755624,75 L105,75 L105,1.24437643 C100.121873,0.425981881 95.1106832,0 90,0 C84.8893168,0 79.8781271,0.425981881 75,1.24437643 L75,1.24437643 Z" id="red-cross" fill="#E94B35"></path>
                <g id="star" transform="translate(55.000000, 50.000000)">
                    <polygon id="star-border" fill="#000000" points="24.1861189 57.6402425 0 59.4366837 13.6665026 39.6244544 0 19.812227 24.1861189 21.6086663 34.7057352 0 45.2253562 21.6086663 69.4114751 19.8122251 55.7449725 39.6244544 69.4114751 59.4366818 45.2253562 57.6402425 34.7057352 79.2489107"></polygon>
                    <polygon fill="#FFFFFF" points="24.7796649 56.5194493 1.81818182 58.2249298 14.7926971 39.4158695 1.81818182 20.6068109 24.7796649 22.3122896 34.7666328 1.79775281 44.7536052 22.3122896 67.7150883 20.6068091 54.7405731 39.4158695 67.7150883 58.224928 44.7536052 56.5194493 34.7666328 77.0339879"></polygon>
                    <path d="M41.2481813,49.8724725 C42.0961613,49.0474549 43.4594595,48.1338963 44.2166213,46.1483143 C44.9258104,44.2900185 45.2690485,40.8788581 45.9160067,39.1499952 C46.7610467,36.1863889 48.4639067,33.296859 46.4375867,33.4946783 C44.507834,33.6830702 43.8839322,35.5262864 43.1527613,36.8752859 C42.8140067,37.3777219 42.0335595,38.4539035 41.8860576,39.0654558 C41.8564395,38.0390163 41.331854,35.0452779 41.2247867,32.0349659 C41.1247831,29.223277 41.2053685,26.2968248 41.1294631,25.2048194 C41.0362776,23.7630073 41.0460467,22.4085498 40.7040849,21.3430415 C40.5446813,20.8463817 39.8065395,20.3687493 39.4279176,20.3895943 C38.6503776,20.3952572 38.1800595,21.0641938 38.0750376,21.6924815 C37.9993558,22.1889633 38.0204376,22.0077983 37.9691813,22.6494343 C37.9043104,23.4613839 37.9847813,24.5081399 37.9255995,25.4268922 C37.8617922,26.4176015 37.9926522,27.5182091 37.9380904,28.4399116 C37.8281049,30.2985956 37.6920631,32.0017327 37.6365685,32.3501642 C37.6365685,31.6609435 37.3178758,28.4049633 37.2113322,25.3144967 C37.170914,24.1420024 37.1430467,22.9862702 37.1224176,21.9096895 C37.1057267,21.0390181 37.1439085,20.1132275 37.0494249,19.4368428 C36.8882104,18.2828203 36.5107285,17.7574145 35.6640958,17.7574145 C35.0930758,17.7574145 34.2756413,18.1682513 34.0141722,19.4516419 C33.8732431,20.1433758 33.8674285,20.9906999 33.8905122,21.91525 C33.9119485,22.774903 33.9584158,23.7013192 33.9444576,24.6315161 C33.8916576,28.151917 33.828374,31.8831242 33.6832449,32.9822325 C33.6598449,32.6208572 33.3034504,30.7789192 33.2073795,28.312841 C33.1695249,27.341348 33.1162449,26.1691394 33.0635322,25.0486199 C33.0005049,23.7087619 33.0057413,22.7095098 32.9717813,21.8157066 C32.9619085,21.2756149 32.7448231,19.7218711 31.6939722,19.81525 C31.1423431,19.7485785 30.5578231,20.1287547 30.3226395,21.5992967 C30.1916649,22.4182522 30.1948013,23.828077 30.173054,24.9146999 C30.1317631,26.9775026 30.0414904,28.7838073 30.1416358,30.620379 C30.2041122,31.7661228 30.1945449,32.6493929 30.2076631,33.2141588 C30.2214631,33.3640913 29.9119504,32.2513273 29.7552467,30.7388743 C29.6019685,29.2595143 29.4665485,27.3763772 29.4787667,27.8108365 C29.4787667,27.0467304 29.4416758,25.9095889 29.3719449,24.9710055 C29.317454,24.2380185 29.3514904,23.4293534 28.5474195,23.493943 C27.7313267,23.5594981 27.2303595,23.8323107 27.0615304,25.2137884 C26.9521613,26.1086918 26.9221449,28.0434046 26.8983413,28.7446738 C26.9860667,30.5284994 26.504114,34.687419 26.2857031,35.8700095 C26.2260413,36.7079763 25.8914104,37.7979484 25.7499085,38.9661552 C25.445474,41.4802819 25.7351813,44.423917 26.0717267,45.930583 C26.740994,48.3090531 28.4877631,49.3763089 28.4000049,50.9901498 C28.3122795,52.6041956 28.4000049,55.4498244 28.4000049,56.7239979 C28.4000049,57.9981767 29.5194249,58.0668383 31.8368267,57.5734199 C35.6257013,56.7663997 37.6961704,58.3804347 40.8248158,57.1911619 C40.4278667,53.6659988 41.2012231,51.5466963 41.1808558,50.2725174 L41.2481813,49.8724725 Z" id="hand" fill="#E94B35"></path>
                </g>
                <g id="crown" transform="translate(68.000000, 15.000000)">
                    <path d="M5.47423902,39.3808868 C5.47423902,39.3808868 6.38884098,40.2364112 6.63272341,41.0002727 C6.87662561,41.7641336 7.24246244,43.8112807 7.24246244,43.8112807 C7.24246244,43.8112807 16.8152795,41.1530436 21.5102239,41.3669252 C26.2051815,41.5808074 37.0279405,43.9640522 37.0279405,43.9640522 C37.0279405,43.9640522 37.2108688,42.8029842 37.4242676,41.5808074 C37.6376795,40.3586293 38.5217912,39.014235 38.5217912,39.014235 C38.5217912,39.014235 28.1868102,35.7754672 21.6626685,36.0810109 C15.1385137,36.3865546 11.8764395,37.0893054 10.413079,37.547622 C8.94972512,38.0059405 5.38277488,39.4114422 5.47423902,39.3808868 L5.47423902,39.3808868 Z" id="Shape" fill="#F2C500"></path>
                    <path d="M19.753808,0.56967724 L23.8711434,0.56967724 C23.8711434,0.56967724 22.8551927,1.27419094 22.6484188,1.9451707 C22.470469,2.5226278 22.5236524,3.47072176 22.5236524,3.47072176 C22.5236524,3.47072176 23.6465627,3.47072176 24.1456346,3.0455689 C24.6447066,2.62041538 25.6927544,1.87014454 25.6927544,1.87014454 L25.6927544,7.1220391 C25.6927544,7.1220391 24.6822563,6.14266642 24.0707722,5.82157048 C23.3362734,5.43587836 22.5985083,5.29638076 22.5985083,5.29638076 C22.5985083,5.29638076 22.5985083,6.14668714 22.9478554,6.6468688 C23.297209,7.14704914 24.6946105,9.04773364 24.6946105,9.04773364 L18.805568,9.27281674 C18.805568,9.27281674 20.2024032,7.79668714 20.7769039,6.72189562 C21.1512095,6.0216409 21.001478,5.29638076 21.001478,5.29638076 C21.001478,5.29638076 20.0033407,5.29638076 19.5042688,5.64650812 C19.0051968,5.99663284 18.1318259,7.04701294 18.1318259,7.04701294 L18.1318324,1.99518946 C18.1318324,1.99518946 18.5061249,2.97054274 19.329592,3.34567816 C20.153059,3.72081358 20.9266288,3.52074118 20.9266288,3.52074118 C20.9266288,3.52074118 21.0864029,2.51553412 20.7519454,1.89515524 C20.407129,1.25555914 19.678939,0.54466588 19.753808,0.56967724 L19.753808,0.56967724 Z" id="Shape" fill="#F2C500"></path>
                    <path d="M19.4311251,17.2350099 C19.4311251,17.2350099 16.5020861,17.1996431 13.9965124,15.7141831 C11.4909454,14.2287231 8.96382439,12.6729335 5.24467976,13.5567282 C4.48301634,13.737722 1.68041634,14.9714534 0.445278293,18.9680451 C-0.42138878,21.7723739 0.586442195,25.1574644 1.46868366,26.6782925 C2.35091854,28.1991206 3.77356829,29.7406523 3.77356829,29.7406523 L5.28664171,28.7135127 C5.28664171,28.7135127 1.4333861,25.4404077 1.89215561,21.1962368 C2.35091854,16.9520646 4.46830463,15.9617583 4.46830463,15.9617583 C4.46830463,15.9617583 7.07973805,13.910409 10.5734261,15.8556528 C14.0670944,17.8009005 17.4901939,18.6851031 17.4901939,18.6851031 C17.4901939,18.6851031 20.7015607,19.4631996 20.9838754,19.4278328 C21.26619,19.3924621 19.3605498,17.1996405 19.4311251,17.2350099 L19.4311251,17.2350099 Z" id="Shape" fill="#F2C500"></path>
                    <path d="M24.7101059,17.17969 C24.7101059,17.17969 27.6391449,17.1443239 30.144712,15.6588632 C32.650279,14.1734039 35.1773934,12.6176156 38.8965512,13.5014084 C39.658208,13.6824021 42.4608146,14.9161342 43.6959395,18.9127266 C44.5626198,21.717056 43.5547888,25.1021465 42.6725473,26.6229726 C41.7903124,28.1438007 41.1902539,29.0384703 41.1902539,29.0384703 L39.3717183,28.3839101 C39.3717183,28.3839101 42.7078383,25.3850885 42.2490688,21.1409189 C41.7903124,16.896746 39.6729198,15.9064398 39.6729198,15.9064398 C39.6729198,15.9064398 37.0614929,13.8550892 33.5678115,15.8003349 C30.07413,17.7455813 26.6510305,18.6297839 26.6510305,18.6297839 C26.6510305,18.6297839 23.4396768,19.407881 23.1573622,19.3725136 C22.875041,19.3371442 24.7806812,17.1443213 24.7101059,17.17969 L24.7101059,17.17969 Z" id="Shape" fill="#F2C500"></path>
                    <rect id="Rectangle-path" fill="#F2C500" x="19.08" y="14.22454" width="4.74014634" height="11.42922"></rect>
                    <path d="M25.7426583,11.5736447 C25.7427637,13.6012056 23.960092,15.2460623 21.7581102,15.2501371 C19.5561351,15.2542106 17.7663051,13.6159659 17.7575466,11.5884208 C17.7488078,9.56087374 19.5244595,7.90958938 21.7263951,7.89755494 C23.9283307,7.88552248 25.7251478,9.51728404 25.7425463,11.5447836" id="Shape" fill="#F2C500"></path>
                    <path d="M22.0341029,30.5887021 C22.0341029,30.5887021 23.0386676,32.9378995 24.2067139,33.9747133 C24.8866398,34.5782391 26.9309744,35.0328378 27.8551185,34.7963664 C29.9321429,34.2648896 31.3596,32.5994442 31.3596,32.5994442 C31.3596,32.5994442 31.2852907,34.4240063 32.5856634,35.429379 C33.8860361,36.4347485 34.9263263,36.6953996 36.0037712,36.3975106 C37.0812227,36.0996242 40.1277973,33.8282303 40.1277973,33.8282303 L40.7594063,34.3867711 C40.7594063,34.3867711 39.012131,36.0873469 37.1757095,36.9900784 C36.2301761,37.4548728 33.3602276,37.1964809 32.431388,36.4517613 C31.5025551,35.7070417 30.9509122,33.902704 30.9509122,33.902704 C30.9509122,33.902704 30.3790917,35.062687 29.1530283,35.4722837 C27.9269715,35.8818777 26.2420398,35.8641177 24.6776466,35.4059444 C23.6245676,35.0975205 22.2570176,33.6420522 21.9969417,33.1579838 C21.736879,32.673916 21.8111751,32.4132642 21.8111751,32.4132642 C21.8111751,32.4132642 21.0396073,34.6296531 19.4333641,35.234318 C17.916491,35.8053342 16.1872398,35.8098684 14.7180841,35.3864705 C13.2329327,34.9584611 13.1172871,34.1261186 13.1172871,34.1261186 C13.1172871,34.1261186 13.0058298,36.4719843 9.77348195,37.1422302 C6.54113415,37.812478 3.97755,35.429379 3.97755,35.429379 L4.42339244,34.7591286 C4.42339244,34.7591286 6.24390366,36.8071079 9.03040902,36.6209265 C11.816921,36.4347485 12.7457539,32.8600967 12.7457539,32.8600967 C12.7457539,32.8600967 13.9718107,34.7218947 17.2413132,34.7591286 C20.510809,34.7963664 21.439642,30.5142323 21.439642,30.5142323 L22.0341029,30.5887021 L22.0341029,30.5887021 Z" id="Shape" fill="#F2C500"></path>
                    <path d="M42.4581673,29.6717819 L40.0618317,34.6407351 L39.119828,34.8063661 C39.119828,34.8063661 38.5451166,34.4603512 36.9052815,34.5744817 C35.731901,34.6572972 35.3848456,34.9554344 35.3848456,34.9554344 L37.516759,30.0030452 C37.516759,30.0030452 37.6829276,31.0671064 37.9299183,31.6924881 C38.2439217,32.4875214 39.4338249,33.232866 39.4338249,33.232866 C39.4338249,33.232866 39.5987159,32.2818635 39.2850944,31.1293418 C38.9380324,29.8539789 38.1282366,28.1314066 38.1282366,28.1314066 L42.4581673,29.6717819 L42.4581673,29.6717819 Z" id="Shape" fill="#F2C500"></path>
                    <path d="M3.23040073,33.1537386 L1.6740878,30.0879766 L6.34303317,28.2592763 C6.34303317,28.2592763 5.21604659,29.765265 4.94771268,30.8409706 C4.61998537,32.1548148 4.73304951,33.2613101 4.73304951,33.2613101 C4.73304951,33.2613101 5.16237585,32.9385971 5.69903707,32.0780324 C6.1062761,31.4249993 6.77235951,29.0660564 6.77235951,29.0660564 L8.86533366,35.7892196 C8.88149415,35.8072198 7.78939024,34.7109044 7.02155634,34.5807444 C6.15597585,34.4340165 5.10871171,34.713512 5.10871171,34.713512 L3.87439024,35.0900103 L3.23040073,33.1537386 L3.23040073,33.1537386 Z" id="Shape" fill="#F2C500"></path>
                    <path d="M18.2085915,25.6081685 L25.0744346,25.5515333 C25.0744346,25.5515333 24.2691827,26.032928 23.5769488,27.2647302 C22.8847149,28.4965344 22.9836073,29.2752592 22.9836073,29.2752592 C22.9836073,29.2752592 24.029021,29.2611015 24.7636383,28.7230709 C25.4982556,28.1850441 26.3176398,27.1797797 26.3176398,27.1797797 L26.2893885,33.5228575 C26.2893885,33.5228575 25.7949329,32.7158121 24.9755554,32.2344194 C24.1561712,31.7530233 22.9977329,31.7530233 22.9977329,31.7530233 L20.6526051,31.7530233 C20.6526051,31.7530233 19.5802771,31.8165305 19.0986102,32.1353078 C18.4191849,32.5849698 17.5728666,33.4520633 17.5728666,33.4520633 L17.4598485,27.4629527 C17.4598485,27.4629527 17.7989027,28.5106934 18.900832,28.9354529 C20.0027612,29.3602111 20.6243539,29.3035758 20.6243539,29.3035758 C20.6243539,29.3035758 20.6243539,27.9585051 20.0592637,27.2647302 C19.4941734,26.5709547 18.2085915,25.6364865 18.2085915,25.6081685 L18.2085915,25.6081685 Z" id="Shape" fill="#F2C500"></path>
                    <path d="M13.9784595,31.9548223 C13.9784595,31.9548223 14.0029311,30.8144201 14.2475141,30.4717361 C14.5943561,29.9857753 15.066205,29.9659329 15.3069154,30.0335515 C15.6038976,30.1169764 15.9122849,30.38747 15.8618391,31.1795711 C15.8113911,31.9716743 15.5927845,32.3592988 15.8282056,32.6626572 C16.0636289,32.9660157 16.0972602,33.1682539 16.5512899,33.1008419 C17.0053176,33.0334299 17.2071074,32.8817496 17.1062136,32.460419 C17.0053176,32.0390884 16.8707903,32.494125 16.786711,32.1402065 C16.7026318,31.7862879 17.2258861,30.2574199 17.1398448,29.3088625 C17.0557656,28.3819331 16.7026318,27.64039 15.9963642,27.4550058 C15.3325913,27.2807745 14.7688042,27.2864715 14.1466181,27.7415102 C13.5498609,28.1779501 12.784533,29.6122209 12.784533,29.6122209 L12.7677163,32.6795113 L14.0120908,32.6120971 L13.9784595,31.9548223 L13.9784595,31.9548223 Z" id="Shape" fill="#F2C500"></path>
                    <path d="M11.660415,32.7804852 C11.660415,32.7804852 11.1844466,31.744355 10.8238511,31.5277669 C10.312487,31.220622 9.87184574,31.3909076 9.6779727,31.5490765 C9.43877567,31.7442194 9.26351607,32.1154869 9.6247899,32.8218008 C9.98606587,33.5281168 10.340713,33.7962977 10.2454391,34.1685612 C10.1501673,34.5408247 10.1997502,34.7397369 9.75653298,34.8592774 C9.31331793,34.9788158 9.06792787,34.9203105 8.9929031,34.4935907 C8.91788046,34.0668666 9.22222347,34.43046 9.15858657,34.0722838 C9.09495182,33.7141055 8.00704102,32.5209401 7.70872361,31.6166133 C7.41720888,30.7329056 7.44617982,29.9117477 8.02019772,29.4596005 C8.55968062,29.0346577 9.07901523,28.8146747 9.83060895,28.9834694 C10.5514844,29.1453667 11.8237865,30.1550756 11.8237865,30.1550756 L13.0590336,32.9614848 L11.8909611,33.3967307 L11.660415,32.7804852 L11.660415,32.7804852 Z" id="Shape" fill="#F2C500"></path>
                    <path d="M11.4224458,23.6967303 C11.4224458,23.6967303 10.2117026,25.7359732 10.4807571,27.3033255 C10.7498117,28.8706778 12.3641345,32.2413267 12.3641345,32.2413267 L12.3809512,32.6963633 L13.2520136,32.6019856 L13.0535876,32.1402065 C13.0535876,32.1402065 13.4886518,28.105209 13.2217439,26.8314349 C13.0233479,25.8846244 11.4392625,23.7135844 11.4224458,23.6967303 L11.4224458,23.6967303 Z M13.3562734,33.0334299 C13.3562734,33.0334299 13.9612478,33.7589321 14.6847271,34.1120374 C15.4750718,34.4977795 15.7999667,34.5002945 16.1140769,34.2637156 C16.3442194,34.0903792 16.2654208,33.3536402 15.9963663,33.1513998 C15.7273118,32.9491616 15.4220715,33.0519341 15.3741759,33.25252 C15.2933122,33.5911916 15.1830698,33.5686341 14.9369649,33.4379064 C14.5775995,33.2470146 13.7430384,32.7300714 13.7430384,32.7300714 L13.3562734,33.0334299 L13.3562734,33.0334299 Z M12.4190776,33.1981283 C12.4190776,33.1981283 12.1644334,34.1085371 11.6492461,34.7280828 C11.0864465,35.4048902 10.7911944,35.5408007 10.4078833,35.454239 C10.1270416,35.3908157 9.89725113,34.6865543 10.0598027,34.3914766 C10.2223585,34.0963967 10.5427927,34.0645839 10.6685982,34.2278065 C10.8810074,34.5033946 10.9723036,34.4374864 11.1432098,34.2170581 C11.3927644,33.8951868 11.942169,33.0805477 11.942169,33.0805477 L12.4190776,33.1981283 L12.4190776,33.1981283 Z" id="Shape" fill="#F2C500"></path>
                    <path d="M14.7282393,32.7848174 C14.7281942,33.0543687 13.8796844,33.2730221 12.8316945,33.2735406 C11.7837046,33.2740569 10.9319362,33.0562447 10.9278662,32.7866955 C10.9237961,32.5171464 11.7689615,32.2976367 12.8169343,32.2960619 C13.864907,32.2944849 14.7199962,32.5114366 14.7281814,32.7809793" id="Shape" fill="#F2C500" transform="translate(12.828045, 32.784797) rotate(-9.523000) translate(-12.828045, -32.784797) "></path>
                    <path d="M33.0367062,32.8679922 C33.0367062,32.8679922 33.0611778,31.7275899 33.3057607,31.384906 C33.6526027,30.8989452 34.1244517,30.8791028 34.3651621,30.9467214 C34.6621443,31.0301463 34.9705316,31.3006399 34.9200857,32.0927409 C34.8696377,32.8848441 34.6510312,33.2724687 34.8864523,33.5758271 C35.1218755,33.8791856 35.1555068,34.0814238 35.6095366,34.0140118 C36.0635642,33.9465997 36.265354,33.7949195 36.1644602,33.3735889 C36.0635642,32.9522583 35.929037,33.4072949 35.8449577,33.0533764 C35.7608784,32.6994578 36.2841328,31.1705898 36.1980915,30.2220324 C36.1140122,29.295103 35.7608784,28.5535599 35.0546108,28.3681757 C34.390838,28.1939444 33.8270509,28.1996413 33.2048647,28.6546801 C32.6081075,29.0911199 31.8427797,30.5253908 31.8427797,30.5253908 L31.825963,33.5926812 L33.0703375,33.525267 L33.0367062,32.8679922 L33.0367062,32.8679922 Z" id="Shape" fill="#F2C500" transform="translate(34.016824, 31.144638) rotate(20.528000) translate(-34.016824, -31.144638) "></path>
                    <path d="M30.424089,31.9467636 C30.424089,31.9467636 29.9481207,30.9106333 29.5875252,30.6940452 C29.076161,30.3869003 28.6355198,30.5571859 28.4416467,30.7153548 C28.2024497,30.9104978 28.0271901,31.2817652 28.3884639,31.9880791 C28.7497399,32.6943951 29.1043871,32.962576 29.0091131,33.3348395 C28.9138413,33.7071031 28.9634242,33.9060152 28.520207,34.0255557 C28.076992,34.1450941 27.8316019,34.0865889 27.7565771,33.659869 C27.6815545,33.2331449 27.9858975,33.5967383 27.9222606,33.2385621 C27.8586259,32.8803838 26.7707151,31.6872184 26.4723977,30.7828917 C26.1808829,29.8991839 26.2098539,29.078026 26.7838718,28.6258788 C27.3233547,28.200936 27.8426893,27.980953 28.594283,28.1497477 C29.3151584,28.311645 30.5874606,29.3213539 30.5874606,29.3213539 L31.8227076,32.1277632 L30.6546351,32.563009 L30.424089,31.9467636 L30.424089,31.9467636 Z" id="Shape" fill="#F2C500" transform="translate(29.056746, 31.086369) rotate(20.528000) translate(-29.056746, -31.086369) "></path>
                    <path d="M30.8223981,24.0073487 C30.8223981,24.0073487 29.6116549,26.0465916 29.8807095,27.6139439 C30.149764,29.1812962 31.7640868,32.5519451 31.7640868,32.5519451 L31.7809036,33.0069816 L32.6519659,32.9126039 L32.4535399,32.4508249 C32.4535399,32.4508249 32.8886042,28.4158274 32.6216963,27.1420533 C32.4233003,26.1952427 30.8392149,24.0242028 30.8223981,24.0073487 L30.8223981,24.0073487 Z M32.7562257,33.3440482 C32.7562257,33.3440482 33.3612001,34.0695505 34.0846794,34.4226558 C34.8750241,34.8083979 35.199919,34.8109129 35.5140292,34.5743339 C35.7441717,34.4009976 35.6653732,33.6642586 35.3963186,33.4620182 C35.1272641,33.25978 34.8220238,33.3625525 34.7741282,33.5631384 C34.6932645,33.90181 34.5830221,33.8792525 34.3369172,33.7485247 C33.9775518,33.557633 33.1429907,33.0406898 33.1429907,33.0406898 L32.7562257,33.3440482 L32.7562257,33.3440482 Z M31.8190299,33.5087467 C31.8190299,33.5087467 31.5643857,34.4191555 31.0491984,35.0387011 C30.4863988,35.7155086 30.1911467,35.8514191 29.8078356,35.7648574 C29.5269939,35.7014341 29.2972034,34.9971726 29.459755,34.7020949 C29.6223108,34.4070151 29.942745,34.3752023 30.0685505,34.5384249 C30.2809597,34.814013 30.3722559,34.7481048 30.5431621,34.5276765 C30.7927167,34.2058052 31.3421213,33.3911661 31.3421213,33.3911661 L31.8190299,33.5087467 L31.8190299,33.5087467 Z" id="Shape" fill="#F2C500" transform="translate(32.527611, 29.897754) rotate(20.528000) translate(-32.527611, -29.897754) "></path>
                    <path d="M33.0452041,32.7944061 C33.045159,33.0639575 32.1966492,33.2826109 31.1486593,33.2831294 C30.1006694,33.2836457 29.2489009,33.0658335 29.2448309,32.7962843 C29.2407609,32.5267352 30.0859263,32.3072255 31.133899,32.3056506 C32.1818717,32.3040737 33.036961,32.5210253 33.0451461,32.790568" id="Shape" fill="#F2C500" transform="translate(31.145010, 32.794386) rotate(11.003000) translate(-31.145010, -32.794386) "></path>
                    <path d="M4.07172073,35.2971368 L5.79424171,38.9907265 C5.79424171,38.9907265 13.1247746,36.1270228 21.7776556,36.1803884 C34.756661,36.2606827 38.4420556,38.8702818 38.4420556,38.8702818 L40.3648771,34.2934451 L38.9227741,35.1365476 L37.4405927,36.0599437 L35.7581305,36.7023078 L33.7151393,36.541716 L31.9124941,35.2168445 L30.9911488,33.2897528 L29.4689151,34.6949218 L26.78499,35.2971395 L24.1411171,34.6146275 L21.8177078,31.6838474 C21.8177078,31.6838474 20.0869485,34.9416232 17.8919539,35.1365476 C14.7273234,35.4175822 12.8846261,33.6109358 12.8846261,33.6109358 C12.8846261,33.6109358 11.7081571,36.260686 9.7600478,36.7424556 C6.67553488,37.5052599 4.11177951,35.2971368 4.07172073,35.2971368 L4.07172073,35.2971368 Z" id="Shape" fill="#F2C500"></path>
                    <path d="M5.11324244,39.2717611 C5.11324244,39.2717611 5.31354293,40.1148636 5.79424171,39.6732384 C6.27495366,39.2316146 12.8846261,36.6220129 22.2183022,36.6220129 C31.5519717,36.6220129 37.6809454,39.1914668 38.0414744,39.3520567 C38.4020034,39.5126492 38.5622385,39.7133856 38.8827088,39.3520567 C39.203179,38.9907265 38.5622385,38.4286606 38.5622385,38.4286606 C38.5622385,38.4286606 32.0727293,35.6584697 21.9378907,35.6986168 C11.803039,35.7387639 5.23341878,38.6293996 5.23341878,38.6293996 C5.23341878,38.6293996 4.7927722,38.9505794 5.11324244,39.2717611 L5.11324244,39.2717611 Z" id="Shape" fill="#CCA715"></path>
                </g>
            </g>
        </g>
    </g>
</svg>