<?xml version="1.0" encoding="UTF-8" standalone="no"?>
<svg width="180px" height="180px" viewBox="0 0 180 180" version="1.1" xmlns="http://www.w3.org/2000/svg" xmlns:xlink="http://www.w3.org/1999/xlink">
    <!-- Generator: Sketch 3.8.3 (29802) - http://www.bohemiancoding.com/sketch -->
    <title>sahrawi_arab</title>
    <desc>Created with Sketch.</desc>
    <defs></defs>
    <g id="Page-1" stroke="none" stroke-width="1" fill="none" fill-rule="evenodd">
        <g id="flags" transform="translate(-2070.000000, -4770.000000)">
            <g id="sahrawi_arab" transform="translate(2070.000000, 4770.000000)">
                <circle id="white" fill="#FFFFFF" cx="90" cy="90" r="90"></circle>
                <path d="M25.6055537,27.1242279 L56.640625,60 L174.878833,60 C162.523738,25.0442275 129.186567,0 90,0 C64.7609412,0 41.948397,10.3891381 25.6055537,27.1242279 L25.6055537,27.1242279 Z" id="black" fill="#000000"></path>
                <path d="M58.0859375,120 L174.878833,120 C162.523738,154.955772 129.186567,180 90,180 C64.9298376,180 42.2538226,169.749442 25.934514,153.210885 L58.0859375,120 Z" id="green" fill="#1AAF5D"></path>
                <path d="M26.3603888,153.639611 L90,90 L26.3603888,26.3603888 C10.0735925,42.647185 0,65.147185 0,90 C0,114.852815 10.0735925,137.352815 26.3603888,153.639611 L26.3603888,153.639611 Z" id="red" fill="#E94B35"></path>
                <path d="M138.161962,111.997396 C136.056741,112.649065 133.819353,113 131.5,113 C119.073593,113 109,102.926407 109,90.5 C109,78.0735931 119.073593,68 131.5,68 C133.819353,68 136.056741,68.3509354 138.161962,69.0026036 C126.443726,69.1832255 117,78.7387626 117,90.5 C117,102.261237 126.443726,111.816775 138.161962,111.997396 Z M134.5,96.8267337 L125.389329,103.039763 L128.482919,92.4550682 L119.758624,85.7102366 L130.781239,85.3815649 L134.5,75 L138.218761,85.3815649 L149.241376,85.7102366 L140.517081,92.4550682 L143.610671,103.039763 L134.5,96.8267337 Z" id="star" fill="#E94B35"></path>
            </g>
        </g>
    </g>
</svg>