<?xml version="1.0" encoding="UTF-8" standalone="no"?>
<svg width="180px" height="180px" viewBox="0 0 180 180" version="1.1" xmlns="http://www.w3.org/2000/svg" xmlns:xlink="http://www.w3.org/1999/xlink">
    <!-- Generator: Sketch 3.8.3 (29802) - http://www.bohemiancoding.com/sketch -->
    <title>the_faroe_islands</title>
    <desc>Created with Sketch.</desc>
    <defs></defs>
    <g id="Page-1" stroke="none" stroke-width="1" fill="none" fill-rule="evenodd">
        <g id="flags" transform="translate(-720.000000, -5850.000000)">
            <g id="the_faroe_islands" transform="translate(720.000000, 5850.000000)">
                <circle id="white" fill="#FFFFFF" cx="90" cy="90" r="90"></circle>
                <path d="M178.755624,105 C179.574018,100.121873 180,95.1106832 180,90 C180,84.8893168 179.574018,79.8781271 178.755624,75 L60,75 L60,75 L60,5.12116698 C48.8214053,9.07223656 38.6564375,15.1690819 30,22.916803 L30,75 L1.24437643,75 C0.425981881,79.8781271 0,84.8893168 0,90 C0,95.1106832 0.425981881,100.121873 1.24437643,105 L30,105 L30,157.083197 C38.6564375,164.830918 48.8214053,170.927763 59.9999996,174.878829 L60,105 L178.755624,105 L178.755624,105 Z" id="blue" fill="#227FBB"></path>
                <path d="M35,80 L35,18.7554761 C41.0935776,14.0443865 47.8081455,10.0976905 55,7.05909179 L55,80 L179.450712,80 C179.813667,83.2833385 180,86.619909 180,90 C180,93.380091 179.813667,96.7166615 179.450712,100 L55,100 L55,172.940908 C47.8081455,169.90231 41.0935776,165.955614 35,161.244524 L35,100 L0.549287698,100 C0.186333089,96.7166615 0,93.380091 0,90 C0,86.619909 0.186333089,83.2833385 0.549287698,80 L35,80 L35,80 Z" id="red" fill="#E94B35"></path>
            </g>
        </g>
    </g>
</svg>