<?xml version="1.0" encoding="UTF-8" standalone="no"?>
<svg width="180px" height="180px" viewBox="0 0 180 180" version="1.1" xmlns="http://www.w3.org/2000/svg" xmlns:xlink="http://www.w3.org/1999/xlink">
    <!-- Generator: Sketch 3.8.3 (29802) - http://www.bohemiancoding.com/sketch -->
    <title>the_turks_and_caicos_islands</title>
    <desc>Created with Sketch.</desc>
    <defs></defs>
    <g id="Page-1" stroke="none" stroke-width="1" fill="none" fill-rule="evenodd">
        <g id="flags" transform="translate(-990.000000, -5850.000000)">
            <g id="the_turks_and_caicos_islands" transform="translate(990.000000, 5850.000000)">
                <circle id="blue" fill="#227FBB" cx="90" cy="90" r="90"></circle>
                <g id="UK-corner">
                    <path d="M58.6665316,5.60442783 L41.3956444,14.2398718 C16.4947453,30.2482972 0,58.1978704 0,90 L18,90 L18,64.0623044 L69.8753928,90 L90,90 L90,79.937694 L47.124612,58.5 L90,58.5 L90,31.5 L47.1246106,31.5 L90,10.062306 L90,0 C78.9808284,0 68.424181,1.98030051 58.6665316,5.60442783 L58.6665316,5.60442783 Z" id="white" fill="#FFFFFF"></path>
                    <path d="M17.9934072,35.9999997 L90,36 L90,54 L12,53.9999997 L12,89.9999997 L0,89.9999998 C4.3896494e-08,69.7390927 6.69500614,51.041889 17.9934072,35.9999997 L17.9934072,35.9999997 L17.9934072,35.9999997 Z M75.9120161,1.09619155 L24.8567236,27.9002201 C23.7407294,29.0705605 22.6559518,30.2709324 21.6037269,31.5 L30,31.5 L90,0 L89.9925529,0 C85.2024043,0.000387862029 80.4996778,0.374999182 75.9120161,1.09619155 L75.9120161,1.09619155 L75.9120161,1.09619155 Z M28,58.5 L40,58.5 L90,84 L90,90 L28,58.5 L28,58.5 Z" id="red" fill="#E94B35"></path>
                </g>
                <path d="M160.983486,86.8607169 C160.983486,106.225311 153.423679,123.951794 130.996422,134.726317 C108.568532,123.951517 101.008532,106.225117 101.008532,86.86044 L101.008532,63.2736 L160.982936,63.2736 L160.983486,86.8607169 Z" id="white" fill="#FFFFFF"></path>
                <path d="M158.966055,87.6774462 C158.966055,105.739172 151.914872,122.272892 130.996422,132.322431 C110.078,122.272726 103.026789,105.739034 103.026789,87.6771692 L103.026789,65.6772923 L158.966055,65.6772923 L158.966055,87.6774462 Z" id="yellow" fill="#F2C500"></path>
                <g id="conch" transform="translate(106.504587, 68.261538)">
                    <path d="M11.4679817,7.05793846 C11.0631908,6.75238431 10.6239963,6.56568277 10.0173826,6.54871846 C10.1515486,5.05487631 9.07248716,4.40984215 8.29616147,4.13821385 C7.52097798,3.86658554 7.25035321,3.56103138 7.11618716,2.94992308 C6.98087615,2.33881477 6.57608257,1.96541169 5.86741101,1.76174862 C5.15873945,1.55796923 4.55098073,0.845086154 4.28150092,0.505492615 C4.01202385,0.166015385 3.90996606,0.233864308 3.70814312,0.811046769 C3.50517248,1.38822923 2.69559083,2.47462892 3.43751835,2.50867108 C2.89855872,2.94992308 2.59468073,3.45925662 2.93181468,4.13821385 C2.56027706,4.443768 2.2908,4.88513631 2.79650092,5.05487631 C3.30335229,5.22461354 3.43751835,5.36042769 3.47191927,5.49624462 C3.01667064,5.49624462 2.89855872,6.41290431 3.97762018,6.61657015 C3.74139633,6.65049323 3.64048624,7.39741569 4.07967798,7.39741569 C3.47191927,7.39741569 2.96507064,8.31419169 2.18988716,8.31419169 C1.41356147,8.31419169 1.00876789,8.48381538 0.975514679,8.82341169 C0.941113761,9.16288892 0.536320183,9.57021785 0.3345,9.74007138 C0.907857798,9.80792031 1.27824771,9.74007138 1.58212844,9.50236892 C1.88600917,9.26466369 2.39171009,9.19681477 2.72999174,9.46844308 C3.06712844,9.74007138 3.7758,9.875772 4.11293394,9.80792031 C3.37100642,10.3172538 2.83090459,10.9962111 2.76324771,11.6412452 C2.69559083,12.2863929 2.25754404,13.0331991 1.75069541,13.2369785 C1.24499174,13.4406415 0.570723853,13.9839009 0.3345,14.6289323 C0.975514679,16.224552 1.88486147,16.6187243 2.79650092,17.0393234 C4.41681468,17.7863622 5.42821927,18.3295025 6.10362936,19.0764249 C6.7779,19.8233474 7.04852477,19.2800908 8.05993211,20.5701535 C9.07248165,21.8603354 10.0173771,24.3047658 11.0287761,24.7122028 C12.0413257,25.1195317 13.3233578,24.8480169 14.0652716,23.5578378 C14.808344,22.2677723 15.2807917,9.23083477 11.4679541,7.05793015 L11.4679817,7.05793846 L11.4679817,7.05793846 Z" id="Shape" fill="#DA903B"></path>
                    <path d="M13.1892661,1.62581538 C12.2443706,2.64436615 11.0288505,3.66291692 11.2318183,5.49623077 C11.434789,7.32955292 11.6366092,10.31724 9.94978899,11.33568 C8.26296606,12.3542308 7.4533844,14.9344615 9.47734128,16.4282123 C11.5012982,17.9221735 11.5689523,19.7554985 11.906089,21.4530092 C12.2443706,23.1505172 13.1216092,24.50844 14.4712954,23.3541831 C15.8198367,23.5578462 16.5629092,23.0147031 16.5629092,21.9283034 C16.5629092,20.8419009 16.6305661,20.2307954 17.6419706,19.8911991 C18.6545229,19.5517218 18.9240028,19.2121283 19.3964505,18.2955822 C19.8688982,17.3789197 20.1383752,16.9714772 19.8688982,16.4282178 C19.5994183,15.8850748 19.4973606,14.7647492 19.7003284,13.9498643 C19.9032991,13.1350902 19.4308514,12.6937218 19.1602266,12.1845046 C18.8907468,11.6752874 18.7898367,11.2339191 18.9240028,10.5548455 C19.0593138,9.87577477 18.7221798,9.43452 18.2497321,9.09492646 C17.7772844,8.75544923 17.5743138,8.41596923 17.6763716,7.87271262 C17.7772844,7.32956954 17.3380899,6.99008954 16.832389,6.58264708 C16.3266853,6.17520462 15.9551505,5.63206154 15.9551505,4.81729015 C15.9551505,4.00240246 14.4036413,2.10111508 13.1892606,1.62580708 L13.1892661,1.62581538 L13.1892661,1.62581538 Z" id="Shape" fill="#FF8772"></path>
                    <path d="M13.5597248,23.7954462 C15.8199055,23.2182609 15.6180826,19.4837538 15.2809486,17.9220738 C14.942667,16.3602637 14.0757468,14.1234092 14.740844,12.3541477 C15.6857394,9.84186831 13.592978,7.46529231 14.1330826,6.51469846 C14.6731872,5.56399662 14.6055303,5.05477938 14.5378761,4.74922523 C14.4713642,4.44367108 13.9645156,4.20608215 13.9312624,4.85111354 C13.8968587,5.49614769 13.7282917,5.73373662 13.3235009,6.14117908 C12.9187101,6.54862154 13.0196202,7.43124462 13.3235009,8.41586954 C13.6273817,9.40038092 14.2683963,10.8943394 13.255844,12.8633649 C12.2444394,14.832504 12.6606991,15.7099403 13.0540211,16.6319003 C13.6606349,18.05778 15.1123817,23.0146172 13.5597248,23.7954572 L13.5597248,23.7954462 L13.5597248,23.7954462 Z" id="Shape" fill="#FF9EE1"></path>
                </g>
                <g id="cactus" transform="translate(119.440367, 90.138462)">
                    <g id="green" transform="translate(0.000000, 9.138462)">
                        <path d="M16.6444954,0.163107692 C17.0263514,0.721368 16.6307339,1.32485815 17.2786294,1.56625477 C18.037756,1.84896277 17.3749541,2.85355108 18.2705394,3.20756954 C19.0640697,3.52166123 18.2762642,4.48205538 19.1340193,4.91338523 C19.9011716,5.299596 19.0055862,6.20079508 20.0296046,6.71578338 C21.052478,7.23065538 19.8369578,8.38929046 20.6052578,8.83989138 C21.3724128,9.29048954 20.3495394,10.4491246 21.2451248,10.8997255 C22.1407128,11.3502074 20.8609761,12.2514065 21.692345,12.8951695 C22.5237165,13.5388191 21.5008431,14.5042892 22.3322147,15.0836649 C23.1635835,15.6630406 21.8219257,16.4366169 22.6521495,17.2722766 C23.2920165,17.9159234 22.4216587,18.5463 22.9078679,19.5251566 C23.2278,20.1688062 22.587933,22.743612 20.7967596,22.4860735 C20.1568899,23.5804348 17.662778,24.5459077 16.7671817,24.2240843 C15.8715963,24.8677311 12.9933468,25.7689302 11.5209523,24.3528591 C10.0508615,25.7689302 7.17144771,24.8677311 6.27585138,24.2240843 C5.38026606,24.5459077 2.88615413,23.5804348 2.24627339,22.4860735 C0.4551,22.7436231 -0.184769725,20.1688034 0.135165138,19.5251566 C0.621374312,18.5463 -0.248986239,17.9159234 0.390883486,17.2722766 C1.22110734,16.4366169 -0.120553211,15.6630406 0.710818349,15.0836649 C1.54218716,14.5042892 0.519316514,13.5388191 1.35068532,12.8951695 C2.18205688,12.2514065 0.902320183,11.3502074 1.7979055,10.8997255 C2.69349358,10.4491246 1.67062018,9.29048954 2.43777523,8.83989138 C3.20607523,8.38929046 1.99055505,7.23065538 3.01342569,6.71578338 C4.03744679,6.20079508 3.14185872,5.299596 3.90901376,4.91338523 C4.7667578,4.48205538 3.9789633,3.52166123 4.77249083,3.20756954 C5.6680789,2.85355108 5.00527431,1.84896277 5.76440367,1.56625477 C6.42261743,1.32105046 6.00292018,0.702096923 6.41803211,0.136453846 C8.32272936,0.890412923 14.2191606,1.43147908 16.6444541,0.163093846 L16.6444954,0.163107692 L16.6444954,0.163107692 Z" id="Shape" fill="#00A728"></path>
                        <path id="border" fill="#000000"></path>
                        <g id="yellow" transform="translate(2.477064, 3.046154)" fill="#FCC300">
                            <path d="M4.71055046,0.483230769 C4.71165138,0.772283077 4.70482569,1.06018338 4.43877798,1.41662215 C3.86312477,2.18904646 4.69449633,2.57537354 4.05462661,3.41206892 C3.41590459,4.24888062 4.18305963,4.76386892 3.47897615,5.47190308 C2.77603761,6.17994 3.60740642,6.82370308 2.90332294,7.59612738 C2.2003844,8.36854892 3.03175596,8.88342092 2.32766972,9.59145785 C1.62473119,10.2996083 2.45610275,11.0720326 1.75201927,11.7799505 C1.04908073,12.4881037 1.88044954,13.3891865 1.11214954,14.2261145 C0.344994495,15.0628098 1.24058257,15.7064566 0.600712844,16.3502197 C-0.0391541284,16.9938665 0.53649633,17.637516 0.0892761468,18.0881142 C0.856431193,17.5088548 0.856431193,16.607772 1.4320844,16.1571711 C2.00773486,15.7064566 1.24058257,15.0628098 1.56051743,14.7409865 C1.88044954,14.4191603 1.62473119,13.0673631 2.2003844,12.4237135 C2.77603761,11.7799505 2.26460092,10.4926569 2.77603761,10.042056 C3.28747431,9.59145785 2.90332294,8.23977415 3.54319266,7.78917323 C4.18305963,7.33857508 3.54319266,6.24432738 4.05462661,5.66495169 C4.56721101,5.08569231 4.05462661,4.18449323 4.56721101,3.47645908 C5.07864771,2.76842215 4.59013761,2.12558123 4.95021468,1.54539969 C5.11075321,1.28796369 5.11075321,-0.578708308 4.71055046,0.483230769 L4.71055046,0.483230769 L4.71055046,0.483230769 Z" id="Shape"></path>
                            <path d="M6.54990826,1.28796923 C6.10268807,2.12478092 6.86984037,2.31782677 6.29418991,3.15463846 C5.7185367,3.99145015 6.61412477,4.63509969 5.97425505,5.47190862 C5.33438532,6.30872031 6.29418991,6.75920492 5.7185367,7.59613292 C5.14288349,8.43282831 5.97425505,8.88342646 5.46281835,9.52718954 C4.9502367,10.1708391 5.84582202,10.8144858 5.2071,11.5869102 C4.56723303,12.359448 5.46281835,12.9387074 4.9502367,13.6467443 C4.4388,14.3547785 5.14288349,15.1272028 4.69451835,15.7064622 C4.24729817,16.2858378 5.01445321,17.1226495 4.37458349,17.8950711 C3.73471651,18.6674954 4.50301651,19.1824837 4.11886514,19.6974692 C4.88716789,19.4399197 4.59934128,18.3778671 4.88716789,18.1526234 C5.17499174,17.9272662 4.79084312,16.4468077 5.2380633,16.0605942 C5.68642844,15.6743834 4.9502367,14.4829772 5.36649358,13.9685677 C6.07057982,13.0996772 5.46281835,12.5203015 5.87793028,11.8444597 C6.29418991,11.1685043 5.7196844,10.3008822 6.03847156,9.84901292 C6.58201651,9.07659138 5.79765963,8.38032369 6.19786514,7.82137385 C6.77351835,7.01675723 6.08663394,6.35418554 6.48569174,5.82592708 C7.09345046,5.02131046 6.42147523,4.21669385 6.67833853,3.798288 C6.93405688,3.37988215 7.34916881,1.57759754 6.54990826,1.28796923 L6.54990826,1.28796923 L6.54990826,1.28796923 Z" id="Shape"></path>
                            <path d="M9.0440367,1.99052308 C8.59681927,3.11211692 9.36397156,3.56075446 9.10825321,4.457916 C8.85253486,5.35519108 9.42818807,6.02814738 9.0440367,7.00008092 C8.66103303,7.97213077 9.5566211,8.71974554 9.0440367,9.99087785 C8.53260275,11.2620185 9.37429266,11.5784197 9.0440367,12.8321363 C8.66103303,14.2903246 9.68390642,15.0627489 9.0440367,16.0927117 C8.40531743,17.122572 9.77679083,17.4635502 9.10825321,18.5386431 C8.7883211,19.0536286 9.14036147,20.3732335 9.65179817,18.7961926 C10.1643798,17.2191517 9.2687945,17.0261058 9.71601468,16.3823428 C10.1643798,15.7385797 9.5566211,14.0328775 9.74812294,13.1316812 C9.94077248,12.2304822 9.30090275,11.0074597 9.71601468,10.0419951 C10.1322743,9.07652492 9.07614495,8.04666462 9.49240459,7.20973662 C9.90866422,6.37303846 9.30090275,5.34306462 9.68390642,4.66722277 C10.0680578,3.99138092 9.39607982,3.09018185 9.5566211,2.70397108 C9.71601468,2.31775754 9.39607982,0.890955692 9.0440367,1.990512 L9.0440367,1.99052308 L9.0440367,1.99052308 Z" id="Shape"></path>
                        </g>
                    </g>
                    <path d="M16.3049047,8.67624355 C16.1711588,2.46540724 15.0457274,0.276950769 11.5210183,0.276950769 C7.99740056,0.276950769 6.87202863,2.46542117 6.73828746,8.67626366 C6.57675691,8.69461852 6.43987404,8.75783946 6.34024404,8.88385846 C5.88614587,9.45873138 5.95609541,9.90898615 7.26794037,10.4214351 C8.37222936,10.8533409 10.0189156,11.1228923 11.5211147,11.1228923 L11.5211009,11.1228923 C13.0244505,11.1228923 14.67,10.8533409 15.7754312,10.4214351 C17.0872761,9.90898615 17.1572257,9.45873138 16.7031248,8.88385846 C16.6034583,8.75779337 16.466512,8.69457229 16.3049047,8.67624355 L16.3049047,8.67624355 L16.3049047,8.67624355 Z" id="Shape" fill="#EF072D"></path>
                    <path d="M6.73839758,8.67625116 C6.87213796,2.46540903 7.99749723,0.276950769 11.5211284,0.276950769 C9.79417156,0.276950769 8.73919266,1.62851815 8.4513578,2.52971723 C8.16353119,3.43091631 8.32292477,3.36652892 8.70707615,3.01251046 C9.09122752,2.65849477 8.89857798,3.43091631 8.57979083,3.84932215 C8.25985596,4.267728 7.9399211,5.45855815 8.38714128,5.07234462 C8.83550917,4.68613385 9.18640459,5.13673477 8.70707615,5.81257662 C8.22774771,6.48841569 7.81148807,8.06545662 8.29081651,7.51839231 C8.77129266,6.97121169 8.86646972,7.87241077 8.57979083,8.32300892 C8.29081651,8.77360985 8.32292477,9.15970431 8.57979083,8.96665569 C8.69316759,8.88106577 8.74996535,9.01688037 8.75578083,9.22545187 C8.46059519,9.16465301 8.20845847,9.09528731 8.03509266,9.01874769 C7.5732131,8.81448544 7.09556683,8.6357136 6.73839758,8.67625116 L6.73839758,8.67625116 L6.73839758,8.67625116 Z" id="black" fill="#000000"></path>
                    <path d="M15.5784278,8.79255967 C15.5096603,3.77292853 14.8085354,2.21018452 13.4740761,1.66079077 C12.6771055,1.33227415 12.6541734,1.40335477 13.0348817,1.91822677 C13.4155927,2.43309877 13.3571092,3.17344154 13.0050688,2.658456 C12.6541734,2.143584 12.5372064,2.04700154 12.3904266,2.27235877 C12.2436468,2.49759969 12.7998055,3.55965508 13.2103294,4.52524154 C13.5405853,5.30181969 13.3272963,5.68376031 12.8296211,4.911336 C12.3319431,4.13891446 12.3319431,4.83864092 12.768845,5.49071169 C13.2474867,6.20500017 13.3050345,8.16206675 13.3116254,9.38036678 C14.0017539,9.29582993 14.6620735,9.17159277 15.0082761,9.01874769 C15.1988326,8.9344761 15.3920722,8.85454325 15.5784278,8.79255967 L15.5784278,8.79255967 L15.5784278,8.79255967 Z" id="black" fill="#000000"></path>
                </g>
                <g id="lobster" transform="translate(131.275229, 67.153846)" fill="#B95A1E">
                    <path d="M13.0508456,24.5304733 L12.9695172,24.4902194 C12.9741321,24.482204 12.9765138,24.4780671 12.9765138,24.4780671 L12.5019661,23.9831806 C12.5019661,23.9831806 10.1983239,26.2456671 9.77931743,26.7279646 C9.36040459,27.210096 8.91651743,28.2261545 9.43939266,28.5960849 C9.84970118,28.8861951 10.2983155,28.773864 10.8212963,28.109956 L10.8212963,28.109956 C10.6477781,28.7294602 10.6387719,29.6009965 11.1718706,29.7440972 C11.498888,29.8317744 11.7835605,29.7355742 12.0217509,29.4064049 C12.1083382,29.8042759 12.2993898,30.1293981 12.6355266,30.1431683 C13.2494056,30.1681324 13.6064745,29.6273823 13.6242661,28.2362807 C13.6420576,29.6273823 13.9991266,30.1681324 14.6130055,30.1431683 C14.9492247,30.1293948 15.1402875,29.8041165 15.2268449,29.4061124 C15.4650782,29.7355172 15.7498225,29.8318004 16.0769367,29.7440972 C16.60988,29.6010382 16.6010345,28.7299684 16.4276628,28.1104979 L16.4276628,28.1104979 C16.9504607,28.7739251 17.3989426,28.8861162 17.8091394,28.5960849 C18.3320147,28.2261545 17.8881275,27.210096 17.4692147,26.7279646 C17.0502083,26.2456671 14.7465661,23.9831806 14.7465661,23.9831806 L14.2720183,24.4780671 C14.2720183,24.4780671 14.274421,24.4822406 14.279076,24.4903255 L14.1982328,24.5303393 L14.1982328,24.5303393 L13.6242661,24.6711767 L13.0508456,24.5304733 L13.0508456,24.5304733 L13.0508456,24.5304733 Z" id="tail"></path>
                    <g id="legs">
                        <g id="Group" transform="translate(0.000000, 0.276923)">
                            <path d="M19.1249174,5.54469231 C21.931156,3.83088738 23.9614679,2.51260615 24.3366606,2.80259446 C24.3366606,3.14536708 21.9311725,4.85916923 19.9266606,6.23020985 C17.9221404,7.60125323 15.5166606,9.65782523 15.5166606,9.65782523 L14.7148404,8.97230215 C14.7148404,8.97230215 16.3185055,7.25849723 19.1249174,5.54469231 L19.1249174,5.54469231 Z" id="Shape"></path>
                            <path d="M19.5259541,7.94402308 C22.5182202,6.70740646 26.7421927,6.91573569 26.7421927,7.2585 C26.3414284,7.60125877 22.7332018,7.60125877 20.3276972,8.62954338 C18.0315743,9.61105292 15.7027431,11.0288769 15.7027431,11.0288769 L14.9009229,10.3433538 C14.9009229,10.3433538 16.4860954,9.33682431 19.5259541,7.94402308 L19.5259541,7.94402308 Z" id="Shape"></path>
                            <path d="M19.5430183,10.9905895 C22.7500459,9.96230492 27.0077339,10.647828 27.0077339,10.9905895 C26.6069697,11.3333483 23.1510275,11.1250163 20.7455505,11.6761154 C18.2564945,12.2131357 15.7198349,13.3899231 15.7198349,13.3899231 L14.9180147,12.7044 C14.9180147,12.7044 16.3136394,12.0259385 19.5430183,10.9905895 L19.5430183,10.9905895 Z" id="Shape"></path>
                            <path d="M20.104844,13.3881895 C23.5519541,13.0454308 26.3584404,15.102 26.3584404,15.4447532 C25.9576789,15.7875231 22.750211,13.9361815 20.3447339,14.2009643 C17.7962725,14.4651351 15.8722844,15.7875231 15.8722844,15.7875231 L15.0704642,15.102 C15.0704642,15.102 16.6789211,13.7288326 20.104844,13.3881895 L20.104844,13.3881895 Z" id="Shape"></path>
                            <path d="M13.9489624,4.47624 C13.9489624,2.07690092 15.3746257,0.550855385 15.8872459,0.0203261538 C16.0207156,0.550860923 14.5950716,2.41966246 14.5950716,4.47624 C14.5950716,5.97454062 15.0738385,8.24660308 15.0738385,8.24660308 L14.2720183,7.56108 C14.2720183,7.56108 13.9489624,6.53282308 13.9489624,4.47624 L13.9489624,4.47624 Z" id="Shape"></path>
                            <path d="M8.12361468,5.54469231 C5.31737615,3.83088738 3.28706422,2.51260615 2.91187156,2.80259446 C2.91187156,3.14536708 5.31735963,4.85916923 7.32187156,6.23020985 C9.32639174,7.60125323 11.7318716,9.65782523 11.7318716,9.65782523 L12.5336917,8.97230215 C12.5336917,8.97230215 10.9300266,7.25849723 8.12361468,5.54469231 L8.12361468,5.54469231 Z" id="Shape"></path>
                            <path d="M7.72257798,7.94402308 C4.73031193,6.70740646 0.50633945,6.91573569 0.50633945,7.2585 C0.90710367,7.60125877 4.51533028,7.60125877 6.92083486,8.62954338 C9.2169578,9.61105292 11.545789,11.0288769 11.545789,11.0288769 L12.3476092,10.3433538 C12.3476092,10.3433538 10.7624367,9.33682431 7.72257798,7.94402308 L7.72257798,7.94402308 Z" id="Shape"></path>
                            <path d="M7.70551376,10.9905895 C4.49848624,9.96230492 0.240798165,10.647828 0.240798165,10.9905895 C0.641562385,11.3333483 4.09750459,11.1250163 6.50298165,11.6761154 C8.99203761,12.2131357 11.5286972,13.3899231 11.5286972,13.3899231 L12.3305174,12.7044 C12.3305174,12.7044 10.9348927,12.0259385 7.70551376,10.9905895 L7.70551376,10.9905895 Z" id="Shape"></path>
                            <path d="M7.14368807,13.3881895 C3.69657798,13.0454308 0.890091743,15.102 0.890091743,15.4447532 C1.29085321,15.7875231 4.4983211,13.9361815 6.90379817,14.2009643 C9.45225963,14.4651351 11.3762477,15.7875231 11.3762477,15.7875231 L12.1780679,15.102 C12.1780679,15.102 10.569611,13.7288326 7.14368807,13.3881895 L7.14368807,13.3881895 Z" id="Shape"></path>
                            <path d="M13.2995697,4.47624 C13.2995697,2.07690092 11.8739064,0.550855385 11.3612862,0.0203261538 C11.2278165,0.550860923 12.6534606,2.41966246 12.6534606,4.47624 C12.6534606,5.97454062 12.1746936,8.24660308 12.1746936,8.24660308 L12.9765138,7.56108 C12.9765138,7.56108 13.2995697,6.53282308 13.2995697,4.47624 L13.2995697,4.47624 Z" id="Shape"></path>
                        </g>
                        <path d="M16.856411,4.75316308 C16.856411,3.38211692 15.7170523,2.01107354 15.3939963,1.32554769 C16.0401083,1.32554769 17.5024982,3.38211415 17.5024982,4.75316308 C17.5024982,6.25146092 15.0738385,8.52352615 15.0738385,8.52352615 L14.2720183,7.83800308 C14.2720183,7.83800308 16.856411,6.12422031 16.856411,4.75316308 L16.856411,4.75316308 Z" id="Shape"></path>
                        <path d="M10.3921211,4.75316308 C10.3921211,3.38211692 11.5314798,2.01107354 11.8545358,1.32554769 C11.2084239,1.32554769 9.74603394,3.38211415 9.74603394,4.75316308 C9.74603394,6.25146092 12.1746936,8.52352615 12.1746936,8.52352615 L12.9765138,7.83800308 C12.9765138,7.83800308 10.3921211,6.12422031 10.3921211,4.75316308 L10.3921211,4.75316308 Z" id="Shape"></path>
                    </g>
                    <g id="antenna" transform="translate(4.954128, 4.153846)">
                        <path d="M17.0711009,28.3630154 C16.0670312,25.9964917 15.7789128,21.85056 15.7789128,21.1650369 C15.7789128,19.2345563 16.3796945,9.84500308 16.4250083,6.08352923 C16.4703193,2.32205538 14.1636853,0.256596923 11.9023294,0.256596923 C9.96404587,0.256596923 8.67185229,1.62764862 8.67185229,3.68421231 L9.64100367,3.68421231 C9.64100367,2.31316615 10.610155,1.28488154 11.9023431,1.28488154 C13.8406294,1.28488154 15.3302697,2.90497846 15.4558844,6.08354308 C15.594556,9.75726 15.0672028,19.2964846 15.1328284,21.8505738 C15.1984541,24.4048403 16.0670422,26.6819954 17.0711119,28.3630292 L17.0711009,28.3630154 L17.0711009,28.3630154 Z" id="Shape"></path>
                        <path d="M0.269449541,28.3630154 C1.27351927,25.9964917 1.56163761,21.85056 1.56163761,21.1650369 C1.56163761,19.2345563 0.960855963,9.84500308 0.915542202,6.08352923 C0.870231193,2.32205538 3.17686514,0.256596923 5.4382211,0.256596923 C7.37650459,0.256596923 8.66869817,1.62764862 8.66869817,3.68421231 L7.69954679,3.68421231 C7.69954679,2.31316615 6.73039541,1.28488154 5.43820734,1.28488154 C3.4999211,1.28488154 2.01028073,2.90497846 1.88466606,6.08354308 C1.7459945,9.75726 2.27334771,19.2964846 2.20772202,21.8505738 C2.14209633,24.4048403 1.27350826,26.6819954 0.269438532,28.3630292 L0.269449541,28.3630154 L0.269449541,28.3630154 Z" id="Shape"></path>
                    </g>
                    <g id="body" transform="translate(9.357798, 7.476923)">
                        <path d="M1.03447982,2.07491262 C0.711440367,2.41768246 0.711440367,3.78872585 0.711440367,3.78872585 C0.388376147,4.13155938 0.388376147,5.50260277 0.388376147,5.50260277 C0.0653752294,5.84543631 0.388376147,7.21647969 0.388376147,7.21647969 C0.0671530856,7.55742364 0.704319434,8.91527155 0.711354215,8.93023202 C0.46647176,9.19038553 0.779078685,10.0420596 0.944271836,10.4380798 C0.955364488,10.9666307 1.35751376,11.8200822 1.35751376,11.8200822 C1.35751376,11.8200822 1.35735762,11.8813717 1.41312199,11.9716213 C1.39045569,11.985448 1.37178324,11.9999134 1.35751927,12.0150471 C1.10617791,12.2817843 1.44159116,13.1711278 1.60279396,13.5526217 C1.50524485,14.0422979 2.00361193,15.0999452 2.00361193,15.0999452 C2.01428226,15.6299784 2.26020826,16.4709914 2.26020826,16.4709914 C2.26020826,16.4709914 2.45747522,17.123382 4.26798165,17.1560731 C4.28497089,17.1563621 4.28927077,17.1564289 4.29357966,17.1564923 C6.0754897,17.1232857 6.27272752,16.4709914 6.27272752,16.4709914 C6.27272752,16.4709914 6.5186534,15.6299788 6.52898429,15.1006397 C6.52932385,15.0999452 7.02769093,14.0422979 6.93014182,13.5526217 C7.09134462,13.1711278 7.42675787,12.2817843 7.17541651,12.0150471 C7.16115217,11.999913 7.14247913,11.9854472 7.11981451,11.9716202 C7.17557816,11.8813712 7.17542202,11.8200822 7.17542202,11.8200822 C7.17542202,11.8200822 7.57757129,10.9666307 7.58866394,10.4380798 C7.75385709,10.0420596 8.06646402,9.19038553 7.82158159,8.93023197 C7.82861635,8.91527155 8.46578269,7.55742364 8.14456239,7.21654338 C8.14455963,7.21647969 8.46756055,5.84543631 8.14455963,5.50266646 C8.14455963,5.50260277 8.14455963,4.13155938 7.82152018,3.78878954 C7.82149541,3.78872585 7.82149541,2.41768246 7.49845596,2.07491262 C7.48784849,2.06365838 7.47445474,2.05277368 7.45846915,2.04224638 C7.24277878,1.68886761 6.2506506,0.184226629 4.28185834,0.174780229 C2.32749339,0.184089818 1.33579088,1.64589879 1.10115035,2.0262935 C1.07298727,2.04168087 1.05054002,2.0578732 1.03447982,2.07491262 L1.03447982,2.07491262 Z" id="Shape-17"></path>
                    </g>
                </g>
            </g>
        </g>
    </g>
</svg>