<?xml version="1.0" encoding="UTF-8" standalone="no"?>
<svg width="180px" height="180px" viewBox="0 0 180 180" version="1.1" xmlns="http://www.w3.org/2000/svg" xmlns:xlink="http://www.w3.org/1999/xlink">
    <!-- Generator: Sketch 3.8.3 (29802) - http://www.bohemiancoding.com/sketch -->
    <title>the_cook_islands</title>
    <desc>Created with Sketch.</desc>
    <defs></defs>
    <g id="Page-1" stroke="none" stroke-width="1" fill="none" fill-rule="evenodd">
        <g id="flags" transform="translate(-450.000000, -5850.000000)">
            <g id="the_cook_islands" transform="translate(450.000000, 5850.000000)">
                <circle id="blue" fill="#227FBB" cx="90" cy="90" r="90"></circle>
                <path d="M134.143177,63.5364335 L130.035207,66.6430332 L131.720326,61.7761289 L127.496341,58.8292089 L132.645773,58.9278964 L134.143177,54 L135.640582,58.9278964 L140.790013,58.8292089 L136.566028,61.7761289 L138.251148,66.6430332 L134.143177,63.5364335 L134.143177,63.5364335 Z M145.04609,65.8539193 L140.029705,67.0210771 L143.548686,63.2603386 L140.888504,58.8501439 L145.552604,61.0347618 L148.924907,57.1419537 L148.288498,62.2528604 L153.032878,64.2571674 L147.975456,65.2312635 L147.53534,70.3628014 L145.04609,65.8539193 L145.04609,65.8539193 Z M154.063791,72.4056623 L149.006369,71.4315662 L153.750748,69.4272592 L153.114339,64.3163525 L156.486642,68.2091606 L161.150742,66.0245427 L158.490561,70.4347374 L162.009542,74.1954759 L156.993156,73.0283181 L154.503906,77.5372002 L154.063791,72.4056623 L154.063791,72.4056623 Z M159.637036,82.0588066 L155.413052,79.1118866 L160.562483,79.210574 L162.059888,74.2826776 L163.557292,79.210574 L168.706724,79.1118866 L164.482739,82.0588066 L166.167858,86.9257108 L162.059888,83.8191111 L157.951917,86.9257108 L159.637036,82.0588066 L159.637036,82.0588066 Z M160.802162,93.1442359 L158.141981,88.7340412 L162.80608,90.9186591 L166.178383,87.025851 L165.541975,92.1367576 L170.286354,94.1410646 L165.228932,95.1151607 L164.788816,100.246699 L162.299567,95.7378165 L157.283181,96.9049744 L160.802162,93.1442359 L160.802162,93.1442359 Z M157.357707,103.745179 L156.721298,98.6342721 L160.093601,102.527081 L164.757701,100.342462 L162.097519,104.752657 L165.616501,108.513396 L160.600115,107.346238 L158.110865,111.85512 L157.67075,106.723582 L152.613327,105.749486 L157.357707,103.745179 L157.357707,103.745179 Z M149.899249,112.028636 L151.396653,107.10074 L152.894058,112.028636 L158.043489,111.929949 L153.819505,114.876869 L155.504624,119.743773 L151.396653,116.637173 L147.288683,119.743773 L148.973802,114.876869 L144.749817,111.929949 L149.899249,112.028636 L149.899249,112.028636 Z M139.716423,116.562322 L143.088726,112.669514 L142.452317,117.780421 L147.196696,119.784728 L142.139274,120.758824 L141.699159,125.890362 L139.209909,121.38148 L134.193523,122.548638 L137.712504,118.787899 L135.052323,114.377705 L139.716423,116.562322 L139.716423,116.562322 Z M128.569932,116.562322 L133.234031,114.377705 L130.57385,118.787899 L134.092831,122.548638 L129.076445,121.38148 L126.587196,125.890362 L126.14708,120.758824 L121.089658,119.784728 L125.834037,117.780421 L125.197628,112.669514 L128.569932,116.562322 L128.569932,116.562322 Z M118.387105,112.028636 L123.536537,111.929949 L119.312552,114.876869 L120.997671,119.743773 L116.889701,116.637173 L112.78173,119.743773 L114.46685,114.876869 L110.242865,111.929949 L115.392296,112.028636 L116.889701,107.10074 L118.387105,112.028636 L118.387105,112.028636 Z M110.928647,103.745179 L115.673027,105.749486 L110.615604,106.723582 L110.175489,111.85512 L107.686239,107.346238 L102.669853,108.513396 L106.188835,104.752657 L103.528653,100.342462 L108.192753,102.527081 L111.565056,98.6342721 L110.928647,103.745179 L110.928647,103.745179 Z M107.484192,93.1442359 L111.003173,96.9049744 L105.986788,95.7378165 L103.497538,100.246699 L103.057422,95.1151607 L98,94.1410646 L102.74438,92.1367576 L102.10797,87.025851 L105.480274,90.9186591 L110.144374,88.7340412 L107.484192,93.1442359 L107.484192,93.1442359 Z M108.649318,82.0588066 L110.334437,86.9257108 L106.226466,83.8191111 L102.118496,86.9257108 L103.803615,82.0588066 L99.5796302,79.1118866 L104.729062,79.210574 L106.226466,74.2826776 L107.723871,79.210574 L112.873302,79.1118866 L108.649318,82.0588066 L108.649318,82.0588066 Z M114.222563,72.4056623 L113.782448,77.5372002 L111.293198,73.0283181 L106.276812,74.1954759 L109.795793,70.4347374 L107.135612,66.0245427 L111.799712,68.2091606 L115.172015,64.3163525 L114.535606,69.4272592 L119.279985,71.4315662 L114.222563,72.4056623 L114.222563,72.4056623 Z M123.240264,65.8539193 L120.751014,70.3628014 L120.310898,65.2312635 L115.253476,64.2571674 L119.997856,62.2528604 L119.361447,57.1419537 L122.73375,61.0347618 L127.39785,58.8501439 L124.737668,63.2603386 L128.256649,67.0210771 L123.240264,65.8539193 L123.240264,65.8539193 Z" id="star_ring" fill="#FFFFFF"></path>
                <g id="UK-corner">
                    <path d="M58.6665316,5.60442783 L41.3956444,14.2398718 C16.4947453,30.2482972 0,58.1978704 0,90 L18,90 L18,64.0623044 L69.8753928,90 L90,90 L90,79.937694 L47.124612,58.5 L90,58.5 L90,31.5 L47.1246106,31.5 L90,10.062306 L90,0 C78.9808284,0 68.424181,1.98030051 58.6665316,5.60442783 L58.6665316,5.60442783 Z" id="white" fill="#FFFFFF"></path>
                    <path d="M17.9934072,35.9999997 L90,36 L90,54 L12,53.9999997 L12,89.9999997 L0,89.9999998 C4.3896494e-08,69.7390927 6.69500614,51.041889 17.9934072,35.9999997 L17.9934072,35.9999997 L17.9934072,35.9999997 Z M75.9120161,1.09619155 L24.8567236,27.9002201 C23.7407294,29.0705605 22.6559518,30.2709324 21.6037269,31.5 L30,31.5 L90,0 L89.9925529,0 C85.2024043,0.000387862029 80.4996778,0.374999182 75.9120161,1.09619155 L75.9120161,1.09619155 L75.9120161,1.09619155 Z M28,58.5 L40,58.5 L90,84 L90,90 L28,58.5 L28,58.5 Z" id="red" fill="#E94B35"></path>
                </g>
            </g>
        </g>
    </g>
</svg>