<?xml version="1.0" encoding="UTF-8" standalone="no"?>
<svg width="180px" height="180px" viewBox="0 0 180 180" version="1.1" xmlns="http://www.w3.org/2000/svg" xmlns:xlink="http://www.w3.org/1999/xlink">
    <!-- Generator: Sketch 3.8.3 (29802) - http://www.bohemiancoding.com/sketch -->
    <title>transnistria</title>
    <desc>Created with Sketch.</desc>
    <defs></defs>
    <g id="Page-1" stroke="none" stroke-width="1" fill="none" fill-rule="evenodd">
        <g id="flags" transform="translate(-2070.000000, -5850.000000)">
            <g id="transnistria" transform="translate(2070.000000, 5850.000000)">
                <circle id="red" fill="#E94B35" cx="90" cy="90" r="90"></circle>
                <path d="M180,90 C180,81.325301 178.772724,72.9372477 176.482333,65 L3.51766667,65 C1.2272756,72.9372477 0,81.325301 0,90 C0,98.674699 1.2272756,107.062752 3.51766667,115 L176.482333,115 C178.772724,107.062752 180,98.674699 180,90 Z" id="green" fill="#1AAF5D"></path>
                <path d="M48.7902504,15 L48.3392448,16.3910012 L47.179997,19.9586573 L43.4325157,19.9586573 L41.9641031,19.9586573 L43.1488341,20.8217223 L46.1880732,23.0238604 L45.0288254,26.5785344 L44.5783006,27.9695356 L45.7630317,27.1069514 L48.7892887,24.9173145 L51.8155458,27.1069514 L53.0002768,27.9695356 L52.5497521,26.5785344 L51.3905043,23.0113592 L54.4167613,20.8222031 L55.6014924,19.9591381 L54.1465426,19.9591381 L50.3990613,19.9591381 L49.2398135,16.391482 L48.7902504,15 Z M52.1285387,51.2183258 C49.0690102,48.1127077 46.0523194,45.0503582 42.5770886,41.5229691 L39.5688403,44.5512354 L36.0850802,41.0674791 L42.6171285,34.8457664 L48.5464839,35.516732 L44.8495372,39.2355036 C48.7482602,43.0589357 51.8310079,46.1376095 55.0569193,49.3338061 C58.0070986,46.1066939 57.9213304,39.5379008 48.8188196,29.4249192 L48.8188116,29.4249192 C62.3628158,37.3530472 62.3966049,46.9666395 57.7515739,51.9964039 C58.852981,53.0811888 59.997516,54.2035556 61.2184947,55.3934561 C62.9674556,57.2709089 60.2364437,59.4819849 58.6681562,57.8559498 C57.4016498,56.5705872 56.1903814,55.3412032 55.0073997,54.1404737 C51.3192166,56.1628612 46.4268787,56.0382287 42.3968836,52.2995963 L42.211442,52.1267298 C42.075569,52.9231458 41.3346161,53.2974968 40.4597939,53.5759733 C39.2222492,55.2890373 38.5076111,57.3654453 36.1951933,58.3260977 C34.7844538,58.4876319 33.5375582,57.6391566 34.1680063,55.688252 C35.2710651,53.8439103 37.1902972,52.8134146 38.9631794,51.6388835 C39.2126869,50.6494161 39.7719703,50.1213744 40.7250801,50.1873176 C40.9569671,49.4044058 41.7104023,49.5389589 42.1954808,49.9968577 C42.4507642,49.7096198 42.7068981,49.4231364 42.9625018,49.1361836 L43.277842,49.3964644 C45.5221057,51.6092568 49.1836985,52.2406304 52.1285387,51.2183258 Z M48.7902504,18.0781852 L49.6018681,20.5765061 L49.7047627,20.9116349 L50.0528736,20.9116349 L52.6670712,20.9116349 L50.5548457,22.4439961 L50.271645,22.6502662 L50.3875217,22.9849143 L51.1991394,25.4832352 L49.0739319,23.937892 L48.7907312,23.7316218 L48.5075304,23.937892 L46.3823229,25.4832352 L47.1939406,22.9849143 L47.2968353,22.6502662 L47.0261358,22.4439961 L44.9139103,20.9116349 L47.5281079,20.9116349 L47.8762188,20.9116349 L47.9791135,20.5765061 C48.2494923,19.7437324 48.5198716,18.9109588 48.7902504,18.0781852 Z" id="shape" fill="#F2C500"></path>
            </g>
        </g>
    </g>
</svg>