<?xml version="1.0" encoding="UTF-8" standalone="no"?>
<svg width="180px" height="180px" viewBox="0 0 180 180" version="1.1" xmlns="http://www.w3.org/2000/svg" xmlns:xlink="http://www.w3.org/1999/xlink">
    <!-- Generator: Sketch 3.8.3 (29802) - http://www.bohemiancoding.com/sketch -->
    <title>wales</title>
    <desc>Created with Sketch.</desc>
    <defs></defs>
    <g id="Page-1" stroke="none" stroke-width="1" fill="none" fill-rule="evenodd">
        <g id="flags" transform="translate(-1530.000000, -6390.000000)">
            <g id="wales" transform="translate(1530.000000, 6390.000000)">
                <path d="M179.787572,89.8420959 C179.787608,89.8752924 179.787626,89.9084931 179.787626,89.9416981 C179.787626,139.615129 139.577323,179.883396 89.9753957,179.883396 C40.3734681,179.883396 0.163165468,139.615129 0.163165468,89.9416981 C0.163165468,89.9084931 0.163183435,89.8752924 0.163219362,89.8420959 L179.787576,89.8420959 L179.787576,89.8420959 L179.787572,89.8420959 L179.787572,89.8420959 L179.787572,89.8420959 Z" id="green" fill="#1AAF5D"></path>
                <path d="M179.787572,89.8420959 C179.733863,40.2144496 139.544166,0 89.9753957,0 C40.4066253,0 0.21692798,40.2144496 0.163219362,89.8420959 L179.787576,89.8420959 L179.787576,89.8420959 L179.787572,89.8420959 L179.787572,89.8420959 L179.787572,89.8420959 Z" id="white" fill="#FFFFFF"></path>
                <g id="dragon" transform="translate(29.000000, 50.000000)">
                    <path d="M85.4897698,0 C75.8002883,5.38898975 67.1298499,10.9969958 58.6051745,18.1433734 C54.5165847,21.7361575 55.6705489,24.6002236 55.5124614,27.8268309 C55.6442319,29.9929423 55.0470487,32.0081269 53.7228578,33.2220665 C50.692694,33.8384518 47.6600283,34.4584727 44.6300498,35.074858 C44.3398213,34.2315699 44.0515388,33.3893072 43.7613102,32.5462055 C44.0383803,31.2522811 45.1015322,30.6161328 47.3405174,31.4275389 C47.5169527,29.7638953 46.1864606,29.0866825 44.6300498,28.5085183 C44.0953696,28.0897641 43.4313282,27.7680543 43.5180631,26.3294491 C43.2563756,23.0728242 48.4506508,26.5625046 48.4988369,26.5625046 C48.5472084,26.5625046 48.3258303,23.2760021 45.9389509,22.6180397 C44.6375558,22.1547253 44.0868443,20.7737314 44.5837171,19.7514566 C45.6249073,17.661601 47.5848302,19.915248 49.0837883,19.9961649 C49.0276329,18.631951 48.6414956,17.6597366 47.4737242,16.5585958 C46.845081,16.1694862 45.3013655,15.8767219 45.261334,15.2243528 C45.2285304,14.3383689 46.7082603,13.9595604 48.742084,14.2047349 C48.3180464,12.9630709 46.9503954,12.1597285 45.0702113,11.5770337 C44.699549,10.9284495 44.3288868,10.2796042 43.9582245,9.63101999 C43.4316988,8.6503223 43.1955407,8.62390312 44.4157607,6.76443691 C45.5119943,6.05098866 46.9684189,5.04241752 48.0644671,4.32900656 C47.6613719,4.28034457 47.2571184,4.23199021 46.8540233,4.18334685 C47.015076,2.8537557 47.0336091,2.40640094 47.3405174,0.198097205 C46.1644062,1.81486871 44.6948694,1.52591713 43.3732732,2.19072203 C43.3732732,2.19072203 39.6054916,2.86363726 38.3924994,4.47466627 C38.344128,4.47466627 28.917446,3.99107604 28.917446,3.99107604 C26.9084567,4.2725139 25.1924295,4.8454017 24.8575362,6.81104801 C20.2628071,7.27760655 15.451009,6.86489316 11.9480655,11.2857143 C14.333277,11.1722256 16.421171,10.6007734 19.1006883,10.9477838 C19.1006883,10.9477838 21.3841531,10.9911601 21.8574887,13.4239988 C21.9058601,13.5211364 22.6335628,13.5230474 22.6335628,13.5230474 C22.9237913,13.7499503 23.2120739,13.977832 23.5023024,14.2047349 C23.615169,13.8967287 23.7253484,13.5863453 23.838215,13.2783391 C24.096196,13.4567664 24.3563082,13.6359395 24.6142891,13.8143668 C24.6947228,13.4739193 24.7771025,13.1352337 24.8575362,12.7947489 C25.1155171,12.973083 25.3698377,13.1524239 25.6278187,13.3307766 C25.6439425,12.9254278 25.6640046,12.5184103 25.679943,12.1130614 C26.018543,12.3562595 26.355058,12.5981619 26.6934726,12.84136 L26.6934726,11.2391032 C26.6934726,11.2391032 30.4356322,11.230275 31.5757892,13.622096 C31.624346,13.670758 21.0732138,15.5728641 10.8824116,14.6941515 C11.8657785,14.207718 12.8471531,13.7181429 13.8303347,13.231728 C10.1144458,12.4717246 6.62085226,11.7847421 3.34175172,9.19404086 C4.57924466,13.8806385 10.9738725,19.3856992 12.2839782,19.3610886 C12.2839782,19.4097506 11.0272015,17.0771443 11.0272015,17.0771443 C14.7182561,17.239351 18.4098666,17.3987144 22.1007358,17.5607346 C22.503831,18.7931322 22.3255888,20.1746388 23.3111797,21.2604912 C23.3111797,21.2604912 22.6998187,23.2973966 24.0582958,24.1270743 C24.1068525,24.2242118 25.679943,19.9961649 25.679943,19.9961649 C25.679943,19.9961649 26.1617576,21.1335225 26.6471398,21.8897411 C27.3504714,18.2525832 31.2862094,17.6597832 31.2862094,17.6597832 C31.2862094,17.6597832 32.1086162,19.5571349 32.1086162,19.6057969 C30.8787589,19.7847835 29.3489432,22.3066775 30.1742226,23.6900951 C29.3494992,23.7059429 27.8851517,26.1485048 28.3382863,27.483074 C27.6449625,28.1772066 25.9181399,29.1025769 26.3575599,32.0101777 C24.9983415,32.3032684 24.1935875,34.8051196 24.6142891,37.4578509 C22.5109662,39.4274498 23.0272061,43.0428869 24.903869,44.5077808 C24.1249223,45.205083 23.6454244,45.7412505 23.6470923,46.5994542 C22.9065092,46.3225843 22.2238883,46.5539618 21.9038215,47.0422598 C20.9960697,46.1061223 19.6923579,45.2863727 18.7647757,46.1624751 C18.5245866,45.0549952 17.090865,43.8366275 15.5214811,43.9775795 C15.6134054,42.8096916 15.0109402,41.3640481 13.3496321,40.8604617 C13.3496321,40.8604617 13.0134878,35.3868262 11.3631142,33.6124345 C11.2013201,32.6194315 11.4575867,31.944223 12.8168051,31.1303931 C14.1739849,30.4021412 14.4623138,29.837401 14.3631616,27.7743934 C14.8982126,26.3954504 15.3047827,24.9895662 13.639212,24.0338521 C13.6894367,25.6736308 13.1890427,26.4635026 12.5272253,27.1917546 C11.7366027,27.0759726 11.4606447,28.0041395 10.9287444,28.4094697 C10.1844546,27.400246 12.4988233,25.8367697 10.7839544,23.5910465 C10.6873969,23.4935361 9.58690074,20.6595808 6.86883456,20.7244635 C8.16077778,21.4855296 8.70718025,22.7662164 8.70477095,24.0804632 C7.84779986,26.5126307 7.41231806,28.3923168 8.27040114,31.1828306 C7.14117864,29.4807794 6.50072063,26.2454092 5.56572514,25.68272 C4.74619093,25.5218184 4.34583865,23.5718428 1.16411108,24.1270743 C2.53661775,24.4984716 2.97240534,25.5528614 3.34175172,26.5100671 C2.50016311,26.94672 2.91826085,28.0984338 3.53287444,28.89306 C3.41617143,30.7603009 4.52805621,31.8511406 6.19121766,32.5462055 C5.91729827,35.0917312 5.64273022,37.633062 5.36881082,40.1787742 C4.70810539,40.093942 3.69144374,42.6817441 3.28962734,42.7598643 C2.64304414,43.1646352 1.51392357,44.2531443 2.80892476,44.5602183 C2.42421442,45.9568735 2.06740569,46.7991362 0,47.0888709 C0,47.0888709 2.18444229,48.3923505 3.99620223,46.1624751 C5.93736036,46.1136267 5.29903366,43.7849358 6.23755044,42.7598643 C6.23755044,42.7113887 6.77028474,42.3747633 7.54645146,40.324434 C7.88597807,42.1551318 9.75328175,47.7614225 13.9751246,50.5439192 C17.6550593,54.5069819 20.6794778,58.249714 20.6470449,63.5309389 C22.083361,62.186861 22.9411661,60.0584114 23.6007596,58.0308282 C25.598073,57.3320345 28.4548595,57.0651393 31.0024211,57.1801755 C30.5654103,58.1051263 30.0763678,58.992695 30.7070496,59.5923003 C28.9291682,60.2066347 28.5396485,61.5046142 29.2533587,62.8026403 C27.3792904,64.0829542 27.2559525,64.9058267 27.2262995,67.0325983 C23.759125,71.5044679 21.6201722,71.3560115 18.185616,70.1963272 C17.0576908,69.5303477 15.3121033,68.5716504 14.5079516,69.0776606 C13.0245613,68.083166 10.8917245,67.9353156 10.5407073,70.1963272 C11.653806,69.2682068 12.3184034,69.4470536 13.2048422,70.3419869 C13.0265536,70.7961655 12.8776401,71.2484797 13.5407548,71.5072645 C13.2505263,71.8314914 12.9622437,72.1560445 12.6720152,72.4802714 C11.0757583,72.233419 8.92948493,72.2471693 8.3688583,74.5719448 C9.18876316,73.888626 11.0080197,73.7282372 12.4751009,74.379674 C12.7492056,74.476998 13.023403,74.573483 13.2975077,74.6709934 C13.3297553,75.0438823 13.3639026,75.4167711 13.3959649,75.78966 C13.3959649,75.78966 11.2216602,75.4519625 10.6391645,79 C12.6778068,76.8182273 14.1199146,77.3919168 14.1199146,77.3919168 C14.9055332,78.5488045 17.7969766,78.3745722 19.8767624,76.4713474 C22.7979515,74.8283991 23.6495943,77.1894382 25.5351531,75.6440003 C27.0986064,74.470892 28.9484426,75.2509288 30.2205554,76.6170072 C31.6874512,77.1705607 33.2228732,77.6262308 34.4310468,76.6170072 C34.4310468,76.6170072 35.9068848,75.669683 37.3789699,77.199646 C37.3950937,75.4744757 36.1798775,74.5579615 34.5295039,74.5253337 C34.3682658,74.3631271 34.46297,74.5887248 34.0430097,74.0359171 C32.4956802,73.7115038 30.7570427,73.8431802 29.4039402,73.0629102 C30.0418499,70.6270138 30.9712854,68.4197448 32.7862331,66.5431817 C35.0265156,64.1272348 36.6757773,63.0287974 39.5044861,59.3301128 C39.3953261,61.4203413 40.9877374,63.7442779 41.8269167,65.8673206 C41.8269167,65.8673206 43.5164878,63.1536219 43.7613102,60.9498488 C43.8094963,60.9498488 45.8784403,59.8666067 46.7613577,58.9455712 C48.6250474,60.1084251 51.6626708,58.0146076 53.6244007,56.2829117 C54.8336862,56.7434295 55.7517239,56.7104288 57.1572751,56.2829117 C56.0289793,58.5929582 57.8098723,60.7360437 60.6380252,61.6315362 C60.8995274,63.6708654 62.9470192,64.0977299 66.0531688,64.1135777 C66.1840125,65.313534 68.0338951,65.4769526 68.0338951,65.4769526 C66.8650117,66.0250992 66.255643,66.5744111 66.2964159,67.8133343 C65.0982502,67.8215379 64.1909617,68.124883 63.8755281,69.5146397 C62.2305291,69.5429793 60.5541165,69.6699013 59.1380014,70.4876466 C57.6229195,70.2510486 55.7795699,69.6194215 54.5915974,68.3959732 C53.9788928,67.8770983 53.8259483,67.1289434 52.755661,66.8403275 C52.0773492,66.0337689 51.2657379,66.2137343 51.0123902,66.9859872 C50.3112826,66.4350439 47.6816657,66.1790557 47.2420603,68.6872926 C48.4696936,67.78341 49.5705141,67.4388141 50.3405649,68.5416329 C49.9209753,69.3073601 51.3628514,69.7452715 52.6108711,70.0506675 C53.4960125,70.105855 55.0659988,70.9170747 55.5587942,72.2880006 C54.4171545,72.6364652 52.6868569,72.5215688 51.5452172,71.6529243 C50.530344,70.7986359 49.1595424,70.9003879 48.4061714,71.4606534 C47.3609039,70.7901993 44.871768,72.0558773 44.7748398,74.0825282 C45.8234432,73.1160003 46.7779912,72.6485375 47.7285545,73.2610074 C47.2554041,73.3739928 47.435268,73.4203708 47.4853074,73.6979866 C48.2911271,74.1681994 49.0945838,74.6377597 49.9004035,75.1079726 C48.7153963,75.4225043 47.601371,75.8979842 48.1165915,78.1202154 C48.1165915,78.1202154 49.0818886,76.2005835 51.2556373,76.9083266 C51.3040087,76.8596646 51.5552714,77.5939293 52.1765013,77.1005974 C53.1172421,76.0236944 55.268195,75.5415491 57.1572751,75.3526809 C58.6732836,75.1705247 60.1868366,74.7212402 61.5067648,75.5915628 C62.6819494,74.9833811 63.9903871,74.574322 65.3292191,75.5449517 C66.9087962,76.0476059 68.0620191,77.8998847 70.0667458,77.0539863 C71.0636419,76.3598537 72.2889122,76.3246623 73.5474958,77.7356737 C73.5628783,75.9564345 72.2374365,75.3599988 70.3563257,74.9623129 C69.9209829,74.7025958 69.488559,74.4411075 69.0532162,74.1815768 C67.8444867,74.0031495 66.6306142,74.2186793 65.4218846,73.6455491 C71.747977,72.0003634 76.1826263,68.4513471 79.3043437,63.3852792 C80.3036491,63.7419473 81.2992942,64.0946536 82.2985996,64.4515082 C83.0074911,64.4971871 83.0616078,64.745065 84.522573,65.1856332 C84.5776163,63.0202676 83.653648,60.7897863 79.7850463,60.5653072 L74.7058153,58.6192935 C73.6277442,57.4754569 73.1404624,55.0485098 74.5146926,53.6085995 C75.8598259,52.4036091 76.0945477,52.5480103 76.9819131,51.0799469 C78.0609109,50.9811314 79.0781007,52.0995649 80.0746262,52.0995649 C80.5479618,53.5141187 83.2760359,54.7646015 85.0090672,54.336898 C86.0949222,55.3039852 88.1611325,55.8415511 90.4242108,55.0651965 C91.7085554,56.1963549 93.3818638,56.6686652 95.3528602,55.7934951 C95.8760499,56.3198277 96.9806697,56.7384421 98.2544505,56.4751825 C98.3511934,56.4751825 98.8980592,57.8812532 100.287301,58.3745851 C99.6816391,58.9667326 100.054108,61.5378479 100.675338,62.4588834 C100.251301,63.4474118 100.11777,64.5020347 100.478424,65.5235637 C99.077506,66.4296836 98.7923277,67.1037734 99.4185616,68.6348551 C97.5839689,71.6004402 95.3892778,71.9394893 93.3258011,71.0236743 C92.584106,70.5534615 91.8435228,70.0782612 91.1018277,69.6078619 C90.3121318,68.8294564 89.5227602,68.0557121 88.7330643,67.2773066 C88.3308958,66.8975193 87.4988054,66.7781016 87.3257061,67.6152371 C87.3257061,67.6152371 84.2863221,66.9333166 84.0418704,69.5146397 C85.301566,68.2803776 87.0882507,69.3669291 87.0882507,69.4155911 C87.0882507,69.4642531 86.6626841,69.7554327 86.9897935,70.2487647 C87.0634033,70.1870534 89.2088204,71.0542419 91.1192025,71.8801534 C92.1571383,72.2758966 92.38514,72.3995764 92.8393069,72.6434103 C92.3417355,72.4142533 91.7536409,72.1544393 91.1192025,71.8801534 C89.9562312,71.4367363 88.8232724,71.0823204 88.4898172,71.169334 C87.4074835,71.0677218 86.2593572,70.9325496 85.7330169,71.7519729 C84.5696934,72.2471693 82.7522901,72.6438298 82.8314265,74.8166531 C83.6170451,73.5227288 84.6948846,73.577357 86.0689295,73.6979866 C86.0366819,73.7953106 86.0085116,73.891982 85.9762639,73.989306 C87.4681146,74.6728616 87.1852103,73.8031562 88.5766912,73.674681 C89.7400109,73.5672704 91.3888852,73.9865205 92.2601472,74.2806254 C91.1642843,74.6048523 89.6740367,74.4688877 88.9705198,75.2536323 C88.8415294,75.5131629 88.3901554,75.4071226 88.5882744,76.0285419 C88.5882744,76.0285419 86.4506653,75.9730281 85.8778068,78.9475625 C88.0513701,77.5475513 89.6984078,77.590014 89.7465939,77.590014 C89.7949653,77.590014 90.4242108,77.7356737 90.4242108,77.7356737 C90.4242108,77.7356737 93.0343679,75.9819308 93.082554,75.9819308 C93.1311108,75.9819308 95.6100071,74.8776671 96.7544268,76.1275905 C97.7531762,76.6214818 98.8213784,76.6529443 99.8529314,76.0285419 C101.885272,75.139202 103.787418,75.076883 105.656112,76.3256877 L107.347258,77.3453057 C107.58893,77.1832855 107.829536,77.0180957 108.071208,76.8558891 C108.071208,76.8558891 109.98554,76.3120773 111.389793,78.0269931 C110.809336,75.0597301 108.702492,74.9623129 108.702492,74.9623129 C108.541254,74.8163269 108.377051,74.6713197 108.215998,74.5253337 C107.216693,74.1362242 106.221048,73.7433392 105.221742,73.3542297 C104.785473,72.2680044 103.689425,71.4031353 104.781581,70.0972786 C105.897274,64.5177426 107.231195,60.3274507 105.071161,54.6748285 C107.085895,55.5503716 108.593379,58.2576845 111.117588,57.3025297 C111.117588,55.0323823 102.810584,50.72216 96.4648469,47.2578361 C106.860811,46.7227406 119.355974,39.0025896 114.552006,29.1902058 C115.309639,26.8229209 116.064678,24.4551232 116.822312,22.0878383 C117.891672,24.2548819 120.056989,25.9067796 122,26.6091157 C120.398554,23.5335284 119.479497,14.1304834 120.401519,7.63839516 C116.21248,12.8442778 111.586661,17.4643894 106.669642,22.157755 C109.088213,22.7264105 111.201451,22.3262541 113.538476,22.0354008 C112.877585,23.3973774 112.23583,24.7635489 111.575125,26.1255255 C105.186205,22.3615854 97.6851133,25.1862651 97.628958,30.2098237 C97.8474634,36.0679077 105.04744,36.9006263 109.20057,34.8592817 C108.377144,40.2003552 96.175267,38.2327605 96.175267,38.2327605 C91.8396309,36.7292727 87.7214808,36.9867524 83.1673392,37.0208717 C84.1136399,34.0918298 89.3686111,31.4924216 93.3721339,32.6394277 C87.7671649,26.3172836 94.1642854,18.4682062 101.879991,16.0517 C93.4704057,13.2612981 100.711524,6.81185905 107.005554,2.19072203 C107.005554,2.19072203 88.9060246,9.85370921 87.256207,9.82911719 C82.1123418,9.4383856 83.5243333,3.29523747 85.4897698,0 L85.4897698,0 L85.4897698,0 Z M28,8.08094146 C28.1881432,7.98210342 29.3986941,7.94659978 30.1909036,8.13373765 C31.0145987,8.3283136 32.0138084,8.44047393 31.9998555,8.67822768 C31.618549,9.2969417 30.6845326,10.0429644 29.7640258,9.99806698 C28.8435191,9.9531696 28.3067034,9.42190577 28,8.08094146 L28,8.08094146 L28,8.08094146 Z" id="path554" fill="#E94B35"></path>
                    <path d="M109,31.0642074 C108.318492,33.0876265 102.40441,34.1228686 102.007887,31.1276997 C101.806141,29.6028564 105.510604,27.2507773 109,31.0642074 L109,31.0642074 L109,31.0642074 Z" id="path555" stroke="#000000" stroke-width="0.2" fill="#FFFFFF"></path>
                    <path d="M118,16 C118,16 117.594533,20.9862109 117,22" id="path556" stroke="#000000" stroke-width="0.2"></path>
                    <path d="M116,16 C116,16.0243226 114,21 114,21" id="path557" stroke="#000000" stroke-width="0.2"></path>
                    <path d="M112,26 C112.404568,26.3066198 113.967577,27.1191804 115,29" id="path558" stroke="#000000" stroke-width="0.2"></path>
                    <path d="M109,31 C109,31 111.073356,32.1720748 109.249154,35" id="path559" stroke="#000000" stroke-width="0.2"></path>
                    <path d="M88,40.0129735 C90.8424165,39.6814944 94.921044,45.8014105 97,47" id="path560" stroke="#000000" stroke-width="0.2"></path>
                    <path d="M109,75 C109,75 107.395476,75.8682314 108.251323,77" id="path561" stroke="#000000" stroke-width="0.2"></path>
                    <path d="M89,76 C89,76 90.1140297,76.5 89.9904258,78" id="path562" stroke="#000000" stroke-width="0.2"></path>
                    <path id="path563" stroke="#000000" stroke-width="0.2"></path>
                    <path d="M87.3288604,68 C87.3288604,68 89.0387498,68.7351028 87,70" id="path564" stroke="#000000" stroke-width="0.2"></path>
                    <path id="path565" stroke="#000000" stroke-width="0.2"></path>
                    <path d="M50,75 C50,75 51.3849603,75.1211025 50.8951182,77" id="path566" stroke="#000000" stroke-width="0.2"></path>
                    <path d="M48.783425,71 C48.783425,71 49.6216424,72.5678196 48,73" id="path567" stroke="#000000" stroke-width="0.2"></path>
                    <path d="M50.7809977,67 C50.7809977,67 51.6247384,68.7704352 50,69" id="path568" stroke="#000000" stroke-width="0.2"></path>
                    <path d="M50,75 C50,75 52.0386933,72.8410256 52.9936115,73.9839465 C53.9483485,75.1268673 58,73 58,73" id="path569" stroke="#000000" stroke-width="0.2"></path>
                    <path d="M60,71 L56,73" id="path570" stroke="#000000" stroke-width="0.2"></path>
                    <path d="M64,69.7110902 C64,69.7110902 66.3131531,73.038965 68,69" id="path571" stroke="#000000" stroke-width="0.2"></path>
                    <path d="M67,67.6472401 C68.8771188,69.2381827 68.1080173,70.1915879 74,66" id="path572" stroke="#000000" stroke-width="0.2"></path>
                    <path d="M68,65.2476462 C68,65.2476462 72.6750073,65.6845738 72.8899263,66 C73.4275068,65.490308 77.601917,62.4365867 72.4700889,62 C71.6106016,65.1788012 68.080571,65.2962127 68,65.2476462 L68,65.2476462 L68,65.2476462 Z" id="path573" stroke="#000000" stroke-width="0.2"></path>
                    <path d="M14,76 C14,76 15.6711294,76.307905 14.6927777,78" id="path574" stroke="#000000" stroke-width="0.2"></path>
                    <path d="M13.2465677,72 C13.2465677,72 15.0958254,72.8638546 13,74" id="path575" stroke="#000000" stroke-width="0.2"></path>
                    <path d="M13.9441914,69 C13.9441914,69 14.3446757,70.1436447 13,69.9848765" id="path576" stroke="#000000" stroke-width="0.2"></path>
                    <path d="M14,74 C14,74 16.159296,72.287728 17.2955435,73.3443303 C18.3941715,73.708755 19,73.6357391 19,73.6357391" id="path578" stroke="#000000" stroke-width="0.2"></path>
                    <path id="path579" stroke="#000000" stroke-width="0.2"></path>
                    <path d="M14,71.4759379 C15.4470891,71.4027293 15.7587282,71.997775 17.0753805,71.997775 C18.5922045,72.0398905 20.0701865,71.4759379 22,71" id="path580" stroke="#000000" stroke-width="0.2"></path>
                    <path d="M3,25.9312254 C3,25.9312254 4.0221592,26.3767286 5,25" id="path581" stroke="#000000" stroke-width="0.2"></path>
                    <path d="M3,44 C3,44 4.1687214,44.5641203 3.97921512,46" id="path582" stroke="#000000" stroke-width="0.2"></path>
                    <path d="M9,24.6315571 C9,24.6315571 9,25.7894118 11,24" id="path583" stroke="#000000" stroke-width="0.2"></path>
                    <path d="M10.6615051,28 C10.6615051,28 8.9681608,32.0519546 11,33" id="path584" stroke="#000000" stroke-width="0.2"></path>
                    <path d="M13,27 C13,27 13.8370781,28.6436782 15,27.716446" id="path585" stroke="#000000" stroke-width="0.2"></path>
                    <polyline id="path586" stroke="#000000" stroke-width="0.2" points="11 17 10 15.321483 10.8964983 15"></polyline>
                    <path d="M23,7 C23,7 23.9644867,8.55552005 23.9988553,9.44440006 C24.0333786,10.3333 23.2755676,11 23.2755676,11" id="path587" stroke="#000000" stroke-width="0.2"></path>
                    <path d="M23,9 C23,9 22.7002584,9.72410587 22.6002696,10.2068896 C22.6002696,10.5517108 21,11 21,11" id="path588" stroke="#000000" stroke-width="0.2"></path>
                    <path d="M37.9936102,5 C38.0457695,5.0454499 37.7842684,6.27269942 37,7" id="path589" stroke="#000000" stroke-width="0.2"></path>
                    <path d="M27,7.36080994 C27,7.36080994 28.7807192,6.76646659 30.1131838,7.1034016 C31.433114,7.43237457 33.2027126,8 33.2027126,8 C33.2027126,8 35.3106073,7.65583433 36,7.06580764" id="path590" stroke="#000000" stroke-width="0.2"></path>
                    <path d="M29,8 L31,8.33366763 C31,8.33366763 29.5925433,10.0353081 29,8 L29,8 L29,8 Z" id="path592" stroke="#000000" stroke-width="0.2" fill="#000000"></path>
                    <path d="M32,13.4489893 L34.9585245,19 L36.3750585,16.9183022 L37.1251755,18.3468212 L38.3334894,16.2653069 L40.4168149,17.5712976 L39.6251287,15.0407572 L41.3749649,14.9184123 C41.3749649,14.9184123 40.9165808,13.6938626 39.3332085,13.4489893 C39.7500234,13.1224366 41.2083138,12.1836641 41.2083138,12.1836641 C41.2083138,12.1836641 40.3752458,11.2448916 39.0834192,11.204061 C39.5000468,10.7551084 40.0833255,9.65305037 40.0417564,9.65305037 C40.0001872,9.65305037 38.7499298,9.36734656 38.7499298,9.36734656 C38.7499298,9.36734656 41.7084543,10.3061007 44,9" id="path593" stroke="#000000" stroke-width="0.2"></path>
                    <path d="M22,17 L26.528885,16.9574631 C27.9697921,16.9439125 30.3428203,15.6826518 33,16.075971" id="path594" stroke="#000000" stroke-width="0.2"></path>
                    <path d="M23,16.9279544 C23,16.8938696 23.3411995,16.2137036 23.3411995,16.2137036 L23.7214338,17 L24.3335342,16.9872526 L24.7374531,16.1989417 L25.0690857,16.9902117 L25.6772834,16.9902117 L26.0524649,16.1116099 L26.619295,16.9435248 L27.1006336,16.963002 L27.4797159,15.9497029 L28.2612526,16.6755195 L28.5450673,16.587879 L28.7884902,15.5743123 L29.560548,16.283186 L29.7820114,16.1796265 L30.1400102,15.1807071 L30.7813695,15.9234836 L31.1042554,15.8395435 L31.4038938,15 L32,15.7715269" id="path595" stroke="#000000" stroke-width="0.2"></path>
                    <path d="M41.1875945,8 C41.1875945,8 38.8409919,7.92306708 39.008566,7.076926 C39.1765167,6.11539419 41.4807551,5.42308437 41.4807551,5.42308437 C41.4807551,5.42308437 44.539077,3.61539419 45,3" id="path596" stroke="#000000" stroke-width="0.2"></path>
                    <path id="path597" stroke="#000000" stroke-width="0.2"></path>
                    <path d="M23.0132164,47 C23.0132164,47 22.7454315,48.5139434 24.6206135,51.5420245 C24.0848718,54.9159333 26.8899913,57.5674725 28,58" id="path598" stroke="#000000" stroke-width="0.2"></path>
                    <path d="M13.667385,41 C11.3469019,42.2607361 14.9878495,50.2273674 26,51" id="path599" stroke="#000000" stroke-width="0.2"></path>
                    <path id="path600" stroke="#000000" stroke-width="0.2"></path>
                    <path d="M19,46 C19,46 18.1873107,48.0348467 18,49" id="path601" stroke="#000000" stroke-width="0.2"></path>
                    <path d="M15,44 C15,44 14.5518225,45.5516165 14,46" id="path602" stroke="#000000" stroke-width="0.2"></path>
                    <path d="M54,33 C54,33 56.9203745,32.9585876 59.8409365,25.0717713 C62.7196878,14.279374 84.3786014,2.39034061 84.8375816,0.148812592" id="path603" stroke="#000000" stroke-width="0.2"></path>
                    <path d="M62,20 C66.2293881,17.5743556 79.0851418,13.8182312 87.7961979,10.1899313" id="path604" stroke="#000000" stroke-width="0.2"></path>
                    <path d="M106.50499,2.50473851 C106.50499,2.50473851 65.7462929,20.7648958 65.1603423,21.7589072 C71.9573319,19.7125552 100.785282,14.9191576 101.488534,15.3283908 C99.7893334,15.7376241 64.8088092,23.746187 63.168073,25.6755091 C71.8984948,25.38312 89.5579248,29.0662196 92.4288406,32.0475108 C86.2178016,30.6446377 68.2658618,27.3122563 62.5823086,28.5397703 C66.7426137,29.5337817 81.9668045,40.6156109 81.9668045,42.2523581 C79.5645374,39.9726893 61.1173391,31.2873731 60.3558081,32.0475104 C64.7499721,34.6780833 70.864367,45.3456927 70.8639946,47.7425773 C69.5749778,45.6965968 58.5977701,32.9241204 57.9533548,33.6840719 C59.125256,35.3211907 61.4474599,49.3293025 60.2602909,49.9785401 C60.2602909,48.2832778 55.9610856,36.0224415 55.6095525,35.6717232 C54.7305335,35.9054116 49.2506759,50.6307497 50.3363695,52 C49.6333033,47.0897582 50.453299,36.8410938 51.8009667,37.2501413 C49.3988858,37.6008596 41.7320007,47.6862394 42.5521826,49.2646574 C42.7866,46.7509287 43.1293821,45.0837165 47.4650813,36.7240638 C42.6603609,37.0160814 33.0759155,44.0137494 31.3763422,46.235089 C32.7241961,42.2601579 40.7734618,35.3342929 44.4649319,34.8667304" id="path605" stroke="#000000" stroke-width="0.2"></path>
                    <path d="M31,17 L33,17.0299976" id="path606" stroke="#000000" stroke-width="0.2"></path>
                    <path d="M22,12.9403954 C22,12.9403954 23.6265105,13.5300664 27,11" id="path607" stroke="#000000" stroke-width="0.2"></path>
                    <path d="M32.2518501,43 C31.344866,41.7718278 32.9320881,22.9128726 36.2960723,18 C35.1244342,26.8748133 39.0173754,35.9475764 40,35.9080232" id="path608" stroke="#000000" stroke-width="0.2"></path>
                    <path d="M32,19 C32,19 33.8666942,20.1814793 36,19.9759994" id="path609" stroke="#000000" stroke-width="0.2"></path>
                    <path d="M30,24 C30,24 30.8315939,25.7143173 34,26" id="path610" stroke="#000000" stroke-width="0.2"></path>
                    <path d="M29,27 C29,27 31.1312044,29.3128383 34,28.9642042" id="path611" stroke="#000000" stroke-width="0.2"></path>
                    <path d="M26,32 C26,32 26.5657799,33.8846326 32,34" id="path612" stroke="#000000" stroke-width="0.2"></path>
                    <path d="M25,38 C25,38 27.7772699,40.6834125 33,39.8337344" id="path613" stroke="#000000" stroke-width="0.2"></path>
                    <path d="M25,44.4990294 C25,44.4990294 28.583158,45.9080618 33,44" id="path614" stroke="#000000" stroke-width="0.2"></path>
                    <path d="M83,37 C83,37 80.5980983,39.0503774 82.8397741,42.3467735 C75.3939161,42.2263717 71.3912423,45.6834903 71.0709764,48.0149919 C61.5836321,47.3317816 63.3050383,50.1460105 60.2224554,51.0703977 C56.0993333,47.6130925 50.0546156,49.5428815 50.4549945,53 C47.6926775,49.1004748 43.4496649,50.9901299 42.9293954,51.9548377 C42.40894,52.9197321 42.6091294,47.1708726 42.6091294,47.1708726 C42.6091294,47.1708726 39.8469983,48.4172646 37.9252167,50.7086323 C37.965552,49.1811161 37.9252167,46.6885187 37.9252167,45.8845333 C35.616997,46.353447 33.3885185,46.379954 31,46.3267532" id="path615" stroke="#000000" stroke-width="0.2"></path>
                    <path d="M33.4691228,46 C33.4227713,46 28.8829003,52.3220105 36,54" id="path616" stroke="#000000" stroke-width="0.2"></path>
                    <path d="M42.7670926,50 C42.7670926,50 41.934286,50.432817 41.6345685,50.360625 C40.6353553,50.6132132 40.8350124,53.1384257 42.1006927,52.9940417 C42.5335665,52.4530204 43,51.6954232 43,51.6954232" id="path617" stroke="#000000" stroke-width="0.2"></path>
                    <path d="M40.8533519,51.11464 C40.8533519,51.11464 40.4031342,51.6997867 39.7068938,51.0757147 C39.3382401,50.4520047 38.028274,53.8832241 40.32119,54 C40.7305307,52.9861319 42,52.7132927 42,52.7132927" id="path618" stroke="#000000" stroke-width="0.2"></path>
                    <path d="M38.4024569,53.0025676 C36.8562203,52.8899292 36.0129372,56.5325426 39,54.2422872" id="path619" stroke="#000000" stroke-width="0.2"></path>
                    <path d="M37.6439961,53.4859021 C37.6439961,53.4859021 35.9320123,52.0860422 36.0020944,54.0383884 C35.9668911,55.2538581 36.5259261,55.5485745 36.5259261,55.5485745 C36.5956838,56.4327235 37.3295997,57.6849687 37.9233513,56.5432208 C38.16799,55.4380772 37.7487948,54.9591418 37.7487948,54.9591418" id="path620" stroke="#000000" stroke-width="0.2"></path>
                    <path d="M27.0027308,67.5691612 C26.9647134,67.5691612 27.3074004,70.2892743 29.0592068,68.228571 C30.2777086,65.4676993 34.1240084,57.6787804 35,55" id="path621" stroke="#000000" stroke-width="0.2"></path>
                    <path d="M33.3013689,53 C33.3013689,53 30.0416087,53.7560017 31.2812599,56.9313139 C33.1634404,58.1789712 35,57.9897513 35,57.9897513" id="path622" stroke="#000000" stroke-width="0.2"></path>
                    <path id="path623" stroke="#000000" stroke-width="0.2"></path>
                    <path d="M30,63 C30,63 30.8342053,64.3749976 32,63.9003404" id="path624" stroke="#000000" stroke-width="0.2"></path>
                    <path d="M43.9865044,51 C43.9865044,51 44.1520081,55.0762744 43.3238486,56.5292354 C42.4954326,57.9821964 43.5178123,61 43.5178123,61" id="path625" stroke="#000000" stroke-width="0.2"></path>
                    <path d="M47.8110705,51 C47.8496161,51.0775403 48.5445121,57.2524569 47,59" id="path626" stroke="#000000" stroke-width="0.2"></path>
                    <path d="M53.0125308,49 C53.0125308,49 55.2426669,53.6876934 53,56" id="path627" stroke="#000000" stroke-width="0.2"></path>
                    <path d="M60,51 C60,51 58.7560023,54.7409713 57,56" id="path628" stroke="#000000" stroke-width="0.2"></path>
                    <path d="M66.691042,51 C66.691042,51 60.4309677,62 72,62" id="path629" stroke="#000000" stroke-width="0.2"></path>
                    <path d="M59,55.0068095 C59,54.9742434 65.5545643,55.0215021 66,56" id="path630" stroke="#000000" stroke-width="0.2"></path>
                    <path d="M61,61 C61.0876462,60.9257158 66.0802237,60.5183561 67,59" id="path631" stroke="#000000" stroke-width="0.2"></path>
                    <path d="M66,64 C66.0347268,64 68.4196239,62.2368664 67.9350561,61" id="path632" stroke="#000000" stroke-width="0.2"></path>
                    <path d="M65.9855599,48 C66.3102942,52.0362799 61.07136,54.3427765 59,53.9584794" id="path633" stroke="#000000" stroke-width="0.2"></path>
                    <path d="M66,50.3340783 C66,50.3340783 69.7726894,52.5080639 73,49" id="path634" stroke="#000000" stroke-width="0.2"></path>
                    <path d="M71,48 C71,48 72.3692969,50.4728916 74.0201945,50.3108057 C76.1946522,49.6620858 77,51 77,51" id="path635" stroke="#000000" stroke-width="0.2"></path>
                    <path d="M80.0002078,42 C80.0002078,42 79.840384,48.1729405 88.3853942,49.4316659 C97.9288395,52.1122325 102.440802,50.6907685 103,61.5746422 C102.640675,65.7170275 102.134504,70.3957147 99.1798036,68.6086074" id="path636" stroke="#000000" stroke-width="0.2"></path>
                    <path d="M100,65.463015 C100,65.463015 101.190827,66.9374189 102,65" id="path637" stroke="#000000" stroke-width="0.2"></path>
                    <path d="M101,61.9830921 C101,61.9830921 103.057274,62.2101654 104,61" id="path638" stroke="#000000" stroke-width="0.2"></path>
                    <path d="M100,57.8977604 C100,57.8977604 101.517802,58.4468612 102,57" id="path639" stroke="#000000" stroke-width="0.2"></path>
                    <path d="M101,53 C101,53 99.531826,55.7280269 99,56" id="path640" stroke="#000000" stroke-width="0.2"></path>
                    <path d="M95.9991708,51 C95.9991708,51 96.0659884,53.857067 95,55" id="path641" stroke="#000000" stroke-width="0.2"></path>
                    <path d="M93,51 C93,51 92.9616037,53.3620042 91,55" id="path642" stroke="#000000" stroke-width="0.2"></path>
                    <path d="M85,54 C85.0464523,53.9571395 88.8153558,50.1538614 87.8383447,49" id="path643" stroke="#000000" stroke-width="0.2"></path>
                    <path d="M84,48 C84,48 83.5583093,51.473179 80,52" id="path644" stroke="#000000" stroke-width="0.2"></path>
                    <path d="M32,41 C32,41 38.6391541,36.9660665 39,34" id="path645" stroke="#000000" stroke-width="0.2"></path>
                    <path d="M33,38 C33,37.9573469 37.2410813,36.8705859 39,32" id="path646" stroke="#000000" stroke-width="0.2"></path>
                    <path d="M33,35.9938494 C33.3590731,36.1678859 37.8802473,32.6117603 38,30" id="path647" stroke="#000000" stroke-width="0.2"></path>
                    <path d="M33,33 C34.2486494,32.6294738 36.5460096,29.6058045 37,28" id="path648" stroke="#000000" stroke-width="0.2"></path>
                    <path d="M34,29 C34,29 35.6987972,27.8072168 37,26" id="path649" stroke="#000000" stroke-width="0.2"></path>
                    <path d="M34,25.5460692 C34.0328294,26.830044 35.4409834,25.0938627 36,24" id="path650" stroke="#000000" stroke-width="0.2"></path>
                    <path d="M38,37 L39,38" id="path651" stroke="#000000" stroke-width="0.2"></path>
                    <path d="M37,39 L37.4692308,40" id="path652" stroke="#000000" stroke-width="0.2"></path>
                    <path id="path653" stroke="#000000" stroke-width="0.2"></path>
                    <path d="M33,41 C33,41 33.0587271,41.9412649 34,42" id="path654" stroke="#000000" stroke-width="0.2"></path>
                    <path d="M34,38 C34,38 34.5294278,40.3415356 35,39.957429" id="path655" stroke="#000000" stroke-width="0.2"></path>
                    <path d="M36,36 C36.0499187,36.0703755 37,38 37,38" id="path656" stroke="#000000" stroke-width="0.2"></path>
                    <path d="M37,35 L38,37" id="path657" stroke="#000000" stroke-width="0.2"></path>
                    <path d="M36,33 C36.0303712,33.0307164 36.7882452,34.1392214 37,33.9853536" id="path658" stroke="#000000" stroke-width="0.2"></path>
                    <path d="M35,34 C35,34 35.5600966,36.186159 36,35.9871992" id="path659" stroke="#000000" stroke-width="0.2"></path>
                    <path d="M33,36 L34,37" id="path660" stroke="#000000" stroke-width="0.2"></path>
                    <path d="M34,32 C34,32 34.5295082,34.0694421 35,33.998202" id="path661" stroke="#000000" stroke-width="0.2"></path>
                    <path d="M36,31 C36,31.0407004 36.9273432,33 37,33" id="path662" stroke="#000000" stroke-width="0.2"></path>
                    <path d="M33,30 C33.0356491,30 34,31 34,31" id="path663" stroke="#000000" stroke-width="0.2"></path>
                    <path d="M35,28 C35.0433993,28.026393 36,29 36,29" id="path664" stroke="#000000" stroke-width="0.2"></path>
                    <path id="path665" stroke="#000000" stroke-width="0.2"></path>
                    <path d="M35,24 L36,25" id="path666" stroke="#000000" stroke-width="0.2"></path>
                </g>
            </g>
        </g>
    </g>
</svg>